<?xml version="1.0" encoding="utf-8"?>
<!-- Generator: Adobe Illustrator 18.1.1, SVG Export Plug-In . SVG Version: 6.00 Build 0)  -->
<svg version="1.1" id="Layer_1" xmlns="http://www.w3.org/2000/svg" xmlns:xlink="http://www.w3.org/1999/xlink" x="0px" y="0px"
	 viewBox="0 0 32 32" enable-background="new 0 0 32 32" xml:space="preserve">
<g>
	<defs>
		<rect id="SVGID_1_" width="32" height="32"/>
	</defs>
	<clipPath id="SVGID_2_">
		<use xlink:href="#SVGID_1_"  overflow="visible"/>
	</clipPath>
	<path clip-path="url(#SVGID_2_)" fill="#FFFFFF" d="M19,8.4c-0.2,1.5-1.6,9-2.1,11.5c-0.1,0.5-0.5,0.8-0.9,0.8h0
		c-0.5,0-0.9-0.3-1-0.8c-0.5-2.5-1.9-10-2.1-11.5c-0.2-1.8,1.2-3.4,3-3.4C17.8,4.9,19.3,6.6,19,8.4 M16,27.1c-1.3,0-2.3-1-2.3-2.3
		c0-1.3,1-2.3,2.3-2.3c1.3,0,2.3,1,2.3,2.3C18.3,26,17.3,27.1,16,27.1 M16,0C7.2,0,0,7.2,0,16s7.2,16,16,16c8.8,0,16-7.2,16-16
		S24.8,0,16,0"/>
</g>
</svg>
