<?xml version="1.0" encoding="utf-8"?>
<!-- Generator: Adobe Illustrator 19.0.0, SVG Export Plug-In . SVG Version: 6.00 Build 0)  -->
<svg version="1.1" id="Layer_1" xmlns="http://www.w3.org/2000/svg" xmlns:xlink="http://www.w3.org/1999/xlink" x="0px" y="0px"
	 viewBox="0 0 6.8 16" style="enable-background:new 0 0 6.8 16;" xml:space="preserve">
<style type="text/css">
	.st0{fill:none;stroke:#009036;}
	.st1{clip-path:url(#SVGID_2_);fill:none;stroke:#009036;}
</style>
<line class="st0" x1="-1137.2" y1="8.5" x2="-877.2" y2="8.5"/>
<line class="st0" x1="-277.2" y1="8.5" x2="-17.2" y2="8.5"/>
<g>
	<defs>
		<rect id="SVGID_1_" x="-1178.2" y="-13" width="1202" height="42"/>
	</defs>
	<clipPath id="SVGID_2_">
		<use xlink:href="#SVGID_1_"  style="overflow:visible;"/>
	</clipPath>
	<path class="st1" d="M-1154.8,15.7c-1.9-2.6-3.8-5.1-5.8-7.7c1.9-2.6,3.8-5.1,5.8-7.7"/>
	<path class="st1" d="M-1157.2-12.5c-11.3,0-20.5,9.2-20.5,20.5s9.2,20.5,20.5,20.5c11.3,0,20.5-9.2,20.5-20.5
		S-1145.9-12.5-1157.2-12.5z"/>
	<path class="st1" d="M0.4,0.3C2.3,2.9,4.2,5.4,6.2,8c-1.9,2.6-3.8,5.1-5.8,7.7"/>
	<path class="st1" d="M2.8,28.5c11.3,0,20.5-9.2,20.5-20.5S14.1-12.5,2.8-12.5C-8.5-12.5-17.7-3.3-17.7,8S-8.5,28.5,2.8,28.5z"/>
	<use xlink:href="#SVGID_1_"  style="overflow:visible;fill:none;stroke:#009036;stroke-miterlimit:10;"/>
</g>
</svg>
