<?xml version="1.0" encoding="utf-8"?>
<!-- Generator: Adobe Illustrator 18.1.1, SVG Export Plug-In . SVG Version: 6.00 Build 0)  -->
<svg version="1.1" id="Layer_1" xmlns="http://www.w3.org/2000/svg" xmlns:xlink="http://www.w3.org/1999/xlink" x="0px" y="0px"
	 viewBox="0 0 217.1 43" enable-background="new 0 0 217.1 43" xml:space="preserve">
<g>
	<defs>
		<rect id="SVGID_1_" width="217.1" height="43"/>
	</defs>
	<clipPath id="SVGID_2_">
		<use xlink:href="#SVGID_1_"  overflow="visible"/>
	</clipPath>
	<path clip-path="url(#SVGID_2_)" fill="#B8BBAF" d="M126.8,26c-0.8,0-1.7,0-2.5-0.1l0-8.7l0-0.1l2.4,0c0-1.4,0-2.9,0-4.2l-9.3,0
		l-1.5,0c0,1.3,0,2.8,0,4.2c0.8,0,1.6,0,2.4,0.1v8.4l0,0.3l-2.4,0c0,1.4,0,2.7,0,4.1h10.9V26z"/>
	<path clip-path="url(#SVGID_2_)" fill="#B8BBAF" d="M138.3,26.2c-2.3,0.6-4.8,0.1-6.5-1.6c-0.2-0.2-0.3-0.5-0.5-0.8l-3.3,0
		c0,2-0.1,4.3,0,6.3l3.7,0l0-1.2c0.4,0.2,0.8,0.4,1.3,0.7c2.6,1.1,5.9,1.3,8.4,0c1.9-1,2.8-3,2.6-5.2c-0.3-2.1-2.2-4-4.2-4.5l-6-1.8
		l-0.4-0.2c-0.2-0.2-0.3-0.4-0.3-0.7c0.5-0.8,1.6-0.6,2.4-0.5c1.7,0.2,3.5,0.8,4.5,2.4c1.1,0,2.3,0,3.5,0c0.1-2,0-3.8,0-5.9
		c-1.1,0-2.5,0-3.6,0c-0.1,0.3,0.1,0.7-0.1,1l-1.1-0.6c-2.7-1.2-6.5-1.3-9,0.5c-1.6,1.2-2.1,3.3-1.7,5.2c0.3,1.8,2,3.1,3.6,3.7
		c2.2,0.8,4.5,1.4,6.7,2.1c0.2,0.1,0.5,0.3,0.5,0.6C138.7,26,138.4,26.1,138.3,26.2"/>
	<path clip-path="url(#SVGID_2_)" fill="#B8BBAF" d="M156.1,24.4c-0.1,0.6-0.5,1.2-1.1,1.4c-1,0.4-2.3,0.3-3.2-0.2
		c-0.8-0.5-0.9-1.5-1-2.3c-0.1-1.7-0.2-3.5,0.3-5.1c0.4-1,1.4-1.2,2.3-1.3c1,0,1.9,0.1,2.5,0.9c0.4,0.6,0.3,1.3,0.4,2
		C156.2,21.3,156.4,23,156.1,24.4 M161.9,17.4c-0.4-1.2-1.4-2.2-2.5-3c-3.2-2.1-8.1-2.2-11.4-0.3c-1.8,0.9-3,2.8-3.4,4.7
		c-0.7,3.1-0.5,6.9,1.9,9.2c2.8,2.5,6.8,3,10.4,2c0.2,0,0.7-0.2,1.1-0.4l0.1,0c1.1-0.5,2.2-1.2,3-2.3
		C162.9,24.5,163.1,20.5,161.9,17.4"/>
	<path clip-path="url(#SVGID_2_)" fill="#B8BBAF" d="M145.1,39l-1.2,0.4c-0.2-0.1-0.4-0.2-0.5-0.4l0-0.1c1.6-0.9,3-2.1,4.4-3.4
		c0.7,0.3,1.3,0.6,1.9,1.1C148.3,37.7,146.7,38.4,145.1,39 M142.7,39.7c-2.6,0.6-5.5,0.6-8.2,0c-0.1-0.1,0.1-0.1,0.2-0.2
		c2.3-1.5,5.9-1.5,8.1,0.1C143,39.7,142.8,39.7,142.7,39.7 M133.5,39.4c-2.1-0.5-4-1.5-5.8-2.8v-0.1c0.6-0.4,1.2-0.8,1.8-1
		c1.4,1.4,2.9,2.5,4.4,3.5C133.9,39.1,133.7,39.3,133.5,39.4 M130.4,35.2c1-0.5,2-0.8,3-1.1l0.1,0c0.7,1.4,1.6,2.6,2.5,3.9
		c-0.3,0.2-0.8,0.3-1.1,0.5C133.2,37.7,131.7,36.6,130.4,35.2L130.4,35.2z M134.3,33.8c1.3-0.2,2.6-0.4,4-0.4l0,4.2
		c-0.5,0.1-1.1,0.1-1.6,0.2c-1-1.2-1.9-2.5-2.6-3.9L134.3,33.8z M139.1,33.4c1.4,0,2.8,0.2,4.1,0.5l0,0.1c-0.7,1.3-1.6,2.6-2.5,3.8
		c-0.4,0-0.8-0.1-1.2-0.1l-0.4,0C139,36.1,139,34.8,139.1,33.4 M144,34.1L144,34.1c1.1,0.2,2.2,0.5,3.1,1c-0.8,0.9-1.8,1.7-2.7,2.4
		c-0.6,0.3-1.1,0.7-1.7,1l-1.1-0.5l0.1-0.2C142.5,36.7,143.3,35.4,144,34.1 M154.3,31.9c-1,1.5-2.3,3-3.8,4.1c-0.1,0.1-0.2,0-0.2,0
		c-0.6-0.4-1.3-0.7-1.9-1.1c0.8-1,1.6-1.9,2.1-3h-0.8c-0.6,0.9-1.3,1.9-2.1,2.7c-1.1-0.4-2.1-0.8-3.2-1.1l-0.1-0.1
		c0.2-0.5,0.5-1,0.6-1.5h-0.7l-0.7,1.3c-1.5-0.3-3.1-0.5-4.5-0.6c-0.1-0.2,0-0.5-0.1-0.7h-0.6c0,0.3,0.1,0.5-0.1,0.8
		c-1.5,0.1-3,0.2-4.4,0.5l-0.7-1.3c-0.2,0-0.5-0.1-0.7,0l0.6,1.5l-0.1,0.1c-1.1,0.3-2.2,0.7-3.3,1.2l-0.1,0
		c-0.7-0.8-1.4-1.6-1.9-2.4c-0.1-0.4-0.6-0.2-0.9-0.2c0.6,1.1,1.4,2,2.2,3c-0.7,0.4-1.3,0.8-2,1.2c-1.5-1.1-2.9-2.6-3.9-4.2
		c-0.3,0-0.5,0-0.8,0c1.8,2.8,4.5,5.3,7.4,6.7c0,0,0,0,0,0c0,0,0.1,0.1,0,0.1c2,1,4,1.7,6.2,2c7.6,1,14.8-2.3,19-8.7
		C154.8,31.9,154.5,31.9,154.3,31.9"/>
	<path clip-path="url(#SVGID_2_)" fill="#B8BBAF" d="M127.7,6.4c1.6-1.2,3.3-2,5.1-2.6c0.1-0.1,0.1-0.1,0.2-0.1v0
		c0.2,0,0.3-0.2,0.5,0c0.1,0.1,0.3,0.2,0.4,0.3c-1.5,1-3,2.1-4.4,3.5C128.9,7.3,128.3,6.9,127.7,6.4L127.7,6.4z M142.7,3.4
		L142.7,3.4c-2.1,1.6-5.6,1.8-7.9,0.3c-0.1-0.1-0.4-0.1-0.4-0.3C137,2.7,140.1,2.7,142.7,3.4 M143.7,3.6c2.1,0.5,4,1.5,5.8,2.8
		l-0.1,0.1l-1.7,1h-0.1c-1.3-1.3-2.8-2.5-4.4-3.4C143.3,3.8,143.5,3.7,143.7,3.6 M146.9,7.8c-1,0.4-2,0.8-3,1
		c-0.8-1.3-1.6-2.6-2.5-3.9c0.3-0.2,0.8-0.3,1.1-0.5C144.1,5.3,145.6,6.4,146.9,7.8L146.9,7.8z M139,9.6c-0.1-1.3,0-2.8,0-4.1
		c0.5-0.1,1-0.1,1.5-0.2c1,1.2,1.9,2.5,2.5,3.9C141.7,9.4,140.4,9.6,139,9.6 M138.2,9.5c-0.7,0.1-1.3,0-2-0.1
		c-0.7-0.1-1.5-0.2-2.2-0.4c0.7-1.4,1.6-2.7,2.6-3.9l1.6,0.2C138.3,6.7,138.2,8.2,138.2,9.5 M133.3,8.9L133.3,8.9
		c-1.1-0.2-2.1-0.6-3-1l0-0.1c1.4-1.3,2.8-2.4,4.4-3.2c0.4,0.1,0.7,0.3,1.1,0.4l-0.1,0.2C134.8,6.3,134.1,7.6,133.3,8.9 M123.1,11
		c0.6-0.8,1.3-1.7,2-2.4c0.6-0.6,1.2-1.2,1.9-1.7c0.6,0.4,1.4,0.8,2,1.2c-0.8,1-1.6,1.9-2.1,3c0.2,0.1,0.5,0.1,0.7,0
		c0.6-0.9,1.3-1.8,2.1-2.6c1.1,0.4,2.1,0.8,3.2,1.1l0.1,0.1l-0.6,1.4c0.3,0.1,0.4,0,0.7,0c0.2-0.4,0.4-0.9,0.6-1.3
		c1.4,0.3,2.9,0.5,4.5,0.5c0.2,0.2,0,0.5,0.1,0.8h0.7c0.1-0.2,0-0.5,0.1-0.7c1.4-0.1,2.9-0.2,4.3-0.6l0.1,0l0.7,1.3
		c0.2,0,0.5,0.1,0.7,0l-0.6-1.4l0,0c1.1-0.3,2.2-0.7,3.3-1.2c0.8,0.8,1.5,1.8,2.1,2.7c0.3,0,0.5,0,0.7,0c-0.3-0.5-0.7-1.1-1.1-1.6
		c-0.3-0.5-0.7-0.9-1.1-1.3V8l1.7-1l0.2-0.1c1.5,1.2,2.8,2.6,3.9,4.1c0.3,0,0.5,0.1,0.8,0c-3.3-5-8.8-8.3-14.7-8.7l0,0l-0.1,0
		c-0.7-0.1-1.5-0.1-2.2,0c-0.3,0-0.6,0-0.9,0c-5.9,0.5-11.4,3.6-14.8,8.8C122.5,11,122.8,11.1,123.1,11"/>
	<path clip-path="url(#SVGID_2_)" fill="#B8BBAF" d="M59.7,30.8c0.4,0.5,0.7,0.9,1,1.3c2.3,2.6,5,4.5,8.2,5.8
		c1.9,0.8,3.9,1.5,5.8,2.2c0.2,0.1,0.3,0.1,0.5,0.2c-0.4,0.3-0.7,0.5-1.1,0.6c-1.8,0.8-3.6,1.4-5.6,1.3c-2.4-0.1-4.5-1-6.4-2.4
		c-2.6-2.1-3.9-4.9-4.4-8.1c-0.4-2.3-0.4-4.6-0.1-7c0-0.1,0-0.3,0.1-0.4c0.1,0,0.2,0.1,0.3,0.2c1.9,1.5,3.9,2.8,6.3,3.4
		c1.2,0.3,2.4,0.1,3.6,0.1c1.9-0.1,3.7,0.1,5.5,0.9c2.9,1.2,4.4,3.6,4.1,6.7c-0.1,0.8-0.2,1.5-0.3,2.2c0,0.2-0.1,0.3-0.4,0.3
		c-5.3-1-10.3-2.5-14.8-5.5c-0.7-0.5-1.4-1-2-1.6C60,31,59.9,30.9,59.7,30.8"/>
	<path clip-path="url(#SVGID_2_)" fill="#B8BBAF" d="M60.1,22.7c-0.8-3.3-0.8-6.6,0.6-9.7c2.4-5.5,6.4-9.2,12-11
		c6.8-2.3,13.2-1.2,18.9,3.2c4.4,3.4,7,7.9,7.6,13.5c0.8,7.8-2.1,14.2-8.4,18.9c-3.5,2.5-7.4,3.5-11.7,2.8c-0.3-0.1-0.6-0.1-1-0.2
		c0.7-0.1,1.3-0.2,2-0.3c4.5-0.9,8.5-2.7,11.8-6c3.2-3.2,5-7.1,5.3-11.7C97.5,16,95.3,11,90.7,7.2c-6.6-5.6-16.1-5.6-22.9-0.2
		c-2.5,2-4.3,4.6-5.6,7.5c-1.2,2.6-1.8,5.3-2.1,8.1C60.1,22.6,60.1,22.6,60.1,22.7"/>
	<path clip-path="url(#SVGID_2_)" fill="#B8BBAF" d="M67.7,16.7c-0.1,0.2-0.1,0.4-0.1,0.5c0,2.4,0,4.8,0,7.2c0,0.4-0.1,0.6-0.5,0.5
		c-0.3,0-0.7,0-1,0c-0.3,0-0.4-0.1-0.4-0.4c0-1.5,0-3,0-4.5c0-2.5,0-4.9,0-7.4c0-0.6,0-0.6,0.6-0.6c0.5,0,1.1-0.2,1.5,0.1
		c0.3,0.2,0.5,0.8,0.7,1.2c1.1,2.2,2.3,4.5,3.4,6.7c0.1,0.2,0.1,0.4,0.3,0.5c0.1-0.2,0.1-0.3,0.1-0.5c0-2.5,0-5,0-7.5
		c0-0.4,0.1-0.5,0.5-0.5c0.4,0,0.8,0,1.1,0c0.3,0,0.3,0.1,0.3,0.3c0,0.2,0,0.4,0,0.6c0,3.8,0,7.7,0,11.5c0,0.4-0.1,0.6-0.6,0.6
		c-0.3,0-0.6,0-1,0c-0.5,0.1-0.7-0.2-0.9-0.6c-1.2-2.4-2.4-4.9-3.7-7.3C67.9,17,67.9,16.8,67.7,16.7"/>
	<path clip-path="url(#SVGID_2_)" fill="#B8BBAF" d="M82.3,15.8c0,0-0.1,0-0.2,0c-0.4,0.1-0.5-0.1-0.6-0.5c-0.3-1.3-2.2-1.9-3.3-1
		c-0.6,0.5-0.6,1.3,0,1.8c0.4,0.3,0.9,0.5,1.3,0.6c0.6,0.2,1.2,0.4,1.8,0.6c2.1,0.8,2.7,2.3,2.6,4.3c-0.2,2.2-1.5,3.4-3.8,3.5
		c-1.6,0.1-3-0.3-3.9-1.7c-0.5-0.7-0.7-1.5-0.8-2.4c0-0.2,0-0.3,0.2-0.3c0.5,0,1-0.1,1.5-0.2c0.2,0,0.3,0.1,0.4,0.3
		c0.1,0.4,0.2,0.8,0.4,1.1c0.8,1.2,2.6,1.4,3.6,0.3c0.8-0.8,0.5-2-0.5-2.5c-0.8-0.3-1.6-0.5-2.4-0.8c-1-0.3-1.9-0.9-2.4-1.9
		c-1-2-0.2-5.1,2.8-5.4c0.8-0.1,1.6,0,2.4,0.3c1.6,0.6,2.2,1.9,2.3,3.4c0,0.2-0.1,0.2-0.3,0.2C83.1,15.7,82.7,15.7,82.3,15.8"/>
	<path clip-path="url(#SVGID_2_)" fill="#B8BBAF" d="M85.4,18.5c0-2,0-4,0-6c0-0.3,0.1-0.5,0.4-0.5c2.1,0,4.2,0,6.4,0
		c0.3,0,0.5,0.1,0.4,0.4c0,0.4,0,0.9,0,1.3c0,0.3-0.1,0.4-0.4,0.4c-1.4,0-2.8,0-4.2,0c-0.4,0-0.5,0.1-0.5,0.5c0,0.7,0,1.5,0,2.2
		c0,0.3,0.1,0.4,0.4,0.4c1.2,0,2.4,0,3.6,0c0.4,0,0.5,0.1,0.4,0.4c0,0.4,0,0.9,0,1.3c0,0.3-0.1,0.4-0.4,0.4c-1.2,0-2.4,0-3.6,0
		c-0.4,0-0.5,0.1-0.5,0.5c0,1.5,0,3.1,0,4.6c0,0.4-0.1,0.5-0.5,0.5c-0.4,0-0.8,0-1.2,0c-0.4,0-0.5-0.1-0.4-0.5
		C85.4,22.5,85.4,20.5,85.4,18.5"/>
	<path clip-path="url(#SVGID_2_)" fill="#B8BBAF" d="M79.9,27.4c0-0.1,0-0.3,0-0.4c0-0.2-0.1-0.6,0.3-0.3c0,0,0.1,0,0.1,0
		c0.6-0.2,0.7-0.1,0.7,0.5c0,0.3,0,0.5,0,0.8c0,0.1,0,0.2-0.1,0.2c-0.1,0-0.2-0.1-0.2-0.2c0-0.2,0-0.5,0-0.7c0-0.2,0-0.4-0.3-0.4
		c-0.3,0-0.3,0.2-0.3,0.4c0,0.2,0,0.4,0,0.7c0,0.1,0,0.2-0.1,0.2c-0.2,0-0.2-0.1-0.2-0.2C79.9,27.7,79.9,27.5,79.9,27.4L79.9,27.4z"
		/>
	<path clip-path="url(#SVGID_2_)" fill="#B8BBAF" d="M89.3,30.7c0-0.1,0-0.3,0-0.4c0-0.2,0-0.4,0.3-0.2c0,0,0.1,0,0.1,0
		c0.8-0.1,0.8,0,0.8,0.7c0,0.2,0,0.3,0,0.5c0,0.1,0,0.2-0.2,0.2c-0.2,0-0.1-0.1-0.1-0.2c0-0.2,0-0.5,0-0.7c0-0.2,0-0.3-0.3-0.3
		c-0.2,0-0.3,0.1-0.3,0.3c0,0.2,0,0.5,0,0.7c0,0.1,0,0.2-0.2,0.2c-0.1,0-0.1-0.1-0.1-0.2C89.3,31.1,89.3,30.9,89.3,30.7L89.3,30.7z"
		/>
	<path clip-path="url(#SVGID_2_)" fill="#B8BBAF" d="M82,26.5c0.2,0,0.3,0,0.4,0.1c0.1,0.1,0.1,0.1,0.1,0.2c-0.1,0.1-0.2,0.1-0.3,0
		c-0.2-0.1-0.4-0.2-0.4,0c-0.1,0.2,0.2,0.2,0.3,0.3c0.2,0.1,0.4,0.2,0.5,0.4c0,0.2,0,0.4-0.3,0.5c-0.3,0.1-0.5,0.1-0.7-0.1
		c-0.1-0.1-0.2-0.2-0.1-0.3c0.1-0.1,0.2-0.1,0.3,0c0.1,0.1,0.2,0.1,0.3,0.1c0.1,0,0.2,0,0.2-0.2c0-0.1-0.1-0.2-0.1-0.2
		c-0.1,0-0.2-0.1-0.3-0.1c-0.3-0.1-0.4-0.3-0.3-0.6C81.6,26.6,81.8,26.5,82,26.5"/>
	<path clip-path="url(#SVGID_2_)" fill="#B8BBAF" d="M92.8,31c0,0.3-0.1,0.4-0.4,0.5c-0.3,0.1-0.5,0-0.7-0.2c-0.1-0.1-0.1-0.2,0-0.2
		c0.1-0.1,0.2-0.1,0.2,0c0.1,0.1,0.1,0.2,0.2,0.2c0.1,0,0.2,0,0.3-0.1c0-0.1-0.1-0.2-0.2-0.2c-0.1,0-0.2-0.1-0.3-0.1
		c-0.2-0.1-0.3-0.3-0.3-0.5c0-0.2,0.1-0.3,0.3-0.4c0.2-0.1,0.5,0,0.6,0.1c0.1,0.1,0.1,0.1,0,0.2c0,0.1-0.1,0.1-0.2,0
		c-0.1,0-0.1-0.1-0.2-0.1c-0.1,0-0.3,0-0.3,0.1c0,0.1,0.1,0.2,0.2,0.2C92.8,30.8,92.8,30.8,92.8,31"/>
	<path clip-path="url(#SVGID_2_)" fill="#B8BBAF" d="M75.3,27.3c0-0.1,0-0.3,0-0.4c0-0.2-0.1-0.6,0.3-0.3c0,0,0.1,0,0.1,0
		c0.6-0.1,0.7,0,0.7,0.6c0,0.3,0,0.5,0,0.8c0,0.1,0,0.2-0.2,0.2c-0.1,0-0.1-0.1-0.1-0.2c0-0.2,0-0.5,0-0.7c0-0.2,0-0.4-0.3-0.4
		c-0.2,0-0.3,0.2-0.3,0.4c0,0.2,0,0.5,0,0.7c0,0.1,0,0.2-0.1,0.2c-0.1,0-0.1-0.1-0.1-0.2C75.3,27.8,75.3,27.5,75.3,27.3L75.3,27.3z"
		/>
	<path clip-path="url(#SVGID_2_)" fill="#B8BBAF" d="M89.4,27.4c0-0.2,0-0.3,0-0.5c0-0.2,0-0.5,0.3-0.2c0.1,0.1,0.1,0,0.2,0
		c0.4-0.2,0.6,0,0.7,0.4c0,0.3,0,0.6,0,0.9c0,0.1,0,0.3-0.2,0.3c-0.1,0-0.1-0.1-0.1-0.2c0-0.3,0-0.5,0-0.8c0-0.1-0.1-0.3-0.3-0.3
		c-0.2,0-0.3,0.1-0.3,0.3c0,0.2,0,0.4-0.1,0.6c0,0.1,0.1,0.4-0.1,0.4c-0.2,0-0.1-0.3-0.1-0.4C89.4,27.6,89.4,27.5,89.4,27.4"/>
	<path clip-path="url(#SVGID_2_)" fill="#B8BBAF" d="M72.2,27.4c0-0.6,0.3-0.9,0.7-0.9c0.2,0,0.3,0.1,0.4,0.2c0,0.1,0.1,0.2,0,0.2
		c-0.1,0.1-0.2,0.1-0.2,0c-0.2-0.2-0.4-0.2-0.5,0c-0.1,0.3,0,0.7,0.2,0.8c0.2,0.1,0.3,0,0.3-0.2c0.1-0.1,0.1-0.1,0.2-0.1
		c0.1,0.1,0,0.2,0,0.2c-0.1,0.2-0.2,0.3-0.4,0.3c-0.2,0-0.4,0-0.6-0.3C72.2,27.7,72.1,27.5,72.2,27.4"/>
	<path clip-path="url(#SVGID_2_)" fill="#B8BBAF" d="M91.7,27.4c0-0.6,0.3-0.9,0.7-0.9c0.2,0,0.3,0.1,0.4,0.2c0.1,0.1,0.1,0.2,0,0.2
		c-0.1,0.1-0.2,0.1-0.2,0c-0.2-0.2-0.4-0.2-0.5,0.1c-0.1,0.3,0,0.7,0.2,0.8c0.2,0.1,0.3,0,0.4-0.2c0.1-0.1,0.1-0.1,0.2-0.1
		c0.1,0.1,0,0.2,0,0.2c-0.1,0.2-0.2,0.3-0.4,0.3c-0.2,0-0.4,0-0.6-0.2C91.7,27.7,91.7,27.5,91.7,27.4"/>
	<path clip-path="url(#SVGID_2_)" fill="#B8BBAF" d="M81,30.8c-0.1,0.2,0.1,0.6-0.2,0.6c-0.2,0-0.1-0.4-0.1-0.6
		c0-0.2,0.1-0.6-0.3-0.6c-0.4,0-0.3,0.4-0.3,0.6c0,0.2,0.1,0.6-0.1,0.6c-0.3,0-0.1-0.4-0.1-0.6c0-0.1,0-0.1,0-0.2
		c0-0.7,0-0.8,0.7-0.8c0.2,0,0.4,0.1,0.4,0.3C81,30.4,81,30.6,81,30.8"/>
	<path clip-path="url(#SVGID_2_)" fill="#B8BBAF" d="M77.2,26.1c0.1,0.2,0,0.4,0.3,0.5c0.1,0,0,0.2,0,0.2c-0.3,0.4-0.3,0.7,0,1.1
		c0.1,0.1,0.1,0.2,0,0.2c-0.1,0.1-0.3,0.1-0.4,0c-0.1-0.1-0.1-0.3-0.1-0.4c0-0.3,0-0.6-0.1-0.9C76.7,26.5,76.8,26.2,77.2,26.1"/>
	<path clip-path="url(#SVGID_2_)" fill="#B8BBAF" d="M91.6,30c-0.4,0.2-0.3,0.5-0.3,0.8c0,0.1,0,0.3,0.1,0.4c0.1,0.1,0.2,0.2,0,0.3
		c-0.2,0.1-0.3,0-0.4-0.2c0-0.1,0-0.3,0-0.5c0-0.3,0-0.5-0.1-0.8c-0.1-0.1,0.1-0.5,0.3-0.6c0,0,0.1-0.1,0.1,0
		C91.3,29.7,91.2,30,91.6,30"/>
	<path clip-path="url(#SVGID_2_)" fill="#B8BBAF" d="M85.3,27.3c0-0.1,0-0.2,0-0.3c0-0.5,0.2-0.6,0.6-0.5c0.2,0,0.1,0.2,0.1,0.3
		c-0.6,0.2-0.3,0.6-0.4,1c0,0.1,0,0.1,0,0.2c0,0.1,0,0.1-0.1,0.1c-0.1,0-0.2,0-0.2-0.1C85.3,27.8,85.3,27.6,85.3,27.3
		C85.3,27.3,85.3,27.3,85.3,27.3"/>
	<path clip-path="url(#SVGID_2_)" fill="#B8BBAF" d="M83,30.7c0-0.1,0-0.1,0-0.2c0-0.5,0.2-0.6,0.6-0.6c0,0,0.1,0.1,0.1,0.1
		c0,0.1,0,0.2-0.1,0.2c-0.5,0.1-0.4,0.5-0.4,0.8c0,0.2,0.1,0.5-0.1,0.5c-0.3,0-0.1-0.3-0.2-0.5C83,30.9,83,30.8,83,30.7"/>
	<path clip-path="url(#SVGID_2_)" fill="#B8BBAF" d="M95.3,37.4v1.3c0,0-0.1,0-0.1,0v-0.9c-0.3,0.1-0.3,0.5-0.5,0.5
		c-0.2,0-0.2-0.4-0.5-0.5c-0.1,0.3,0,0.6-0.1,1c0-0.5-0.1-0.9,0-1.3c0.2,0.1,0.3,0.3,0.4,0.4c0.2,0.3,0.3,0.3,0.5,0
		C95,37.7,95.1,37.5,95.3,37.4"/>
	<path clip-path="url(#SVGID_2_)" fill="#B8BBAF" d="M79.2,27.3c0-0.2,0-0.4,0-0.6c0-0.1,0-0.2,0.1-0.2c0.1,0,0.2,0.1,0.2,0.2
		c0,0.4,0,0.9,0,1.3c0,0.1-0.1,0.2-0.2,0.2c-0.1,0-0.1-0.1-0.1-0.2C79.2,27.8,79.2,27.5,79.2,27.3L79.2,27.3z"/>
	<path clip-path="url(#SVGID_2_)" fill="#B8BBAF" d="M91.3,27.4c0,0.2,0,0.4,0,0.6c0,0.1,0,0.2-0.1,0.2c-0.1,0-0.2-0.1-0.2-0.2
		c0-0.4,0-0.9,0-1.3c0-0.1,0-0.2,0.2-0.2c0.1,0,0.1,0.1,0.1,0.2C91.3,26.9,91.3,27.2,91.3,27.4"/>
	<path clip-path="url(#SVGID_2_)" fill="#B8BBAF" d="M87.4,30.7c0,0.2,0,0.4,0,0.6c0,0.1,0,0.2-0.1,0.2c-0.1,0-0.2-0.1-0.2-0.2
		c0-0.4,0-0.8,0-1.3c0-0.1,0-0.1,0.1-0.1c0.1,0,0.2,0.1,0.2,0.2C87.4,30.3,87.4,30.5,87.4,30.7L87.4,30.7z"/>
	<path clip-path="url(#SVGID_2_)" fill="#B8BBAF" d="M79.4,30.7c0,0.2,0,0.4,0,0.6c0,0.1,0,0.2-0.1,0.2c-0.1,0-0.2,0-0.2-0.2
		c0-0.4,0-0.8,0-1.2c0-0.1,0-0.2,0.2-0.2c0.1,0,0.1,0.1,0.1,0.2C79.4,30.3,79.4,30.5,79.4,30.7L79.4,30.7z"/>
	<path clip-path="url(#SVGID_2_)" fill="#B8BBAF" d="M93.6,38.5c-0.3,0.3-0.7,0.3-0.9,0c-0.3-0.3-0.3-0.6,0-0.9
		c0.2-0.3,0.6-0.3,1-0.1c-0.4-0.1-0.7-0.2-0.9,0.2c-0.1,0.2-0.1,0.5,0.1,0.7C93,38.7,93.3,38.7,93.6,38.5"/>
	<path clip-path="url(#SVGID_2_)" fill="#B8BBAF" d="M79.2,29.3c0.1,0,0.2,0,0.2,0.2c0,0.1,0,0.2-0.1,0.2c-0.1,0-0.2,0-0.2-0.2
		C79.1,29.4,79.1,29.3,79.2,29.3"/>
	<path clip-path="url(#SVGID_2_)" fill="#B8BBAF" d="M87.4,29.4c0,0.1,0,0.2-0.1,0.2c-0.1,0-0.2,0-0.2-0.2c0-0.1,0-0.2,0.1-0.2
		C87.3,29.3,87.4,29.4,87.4,29.4"/>
	<path clip-path="url(#SVGID_2_)" fill="#B8BBAF" d="M91.3,26.1c0,0.1,0,0.2-0.1,0.2c-0.1,0-0.1,0-0.1-0.1c0-0.1,0-0.2,0.1-0.2
		C91.2,25.9,91.3,26,91.3,26.1"/>
	<path clip-path="url(#SVGID_2_)" fill="#B8BBAF" d="M79.4,25.9c0.1,0,0.1,0.1,0.1,0.2c0,0.1-0.1,0.1-0.2,0.1
		c-0.1,0-0.1-0.1-0.1-0.1C79.2,26,79.3,25.9,79.4,25.9"/>
	<path clip-path="url(#SVGID_2_)" fill="#B8BBAF" d="M86.9,27.8c-0.3,0-0.3-0.3-0.3-0.5c0-0.2,0-0.5,0.3-0.5c0.3,0,0.3,0.3,0.3,0.5
		C87.3,27.6,87.2,27.8,86.9,27.8 M87.6,27.4c0-0.2,0-0.5,0-0.7c0-0.5-0.4,0-0.6-0.2c-0.2-0.2-0.5,0-0.6,0.3
		c-0.1,0.2-0.1,0.5-0.1,0.8c0.1,0.4,0.3,0.6,0.7,0.4c0.3-0.1,0.3,0.1,0.2,0.2c-0.1,0.3-0.3,0.3-0.5,0.1c-0.1-0.1-0.2-0.1-0.3,0
		c-0.1,0.1,0,0.2,0.1,0.3c0.3,0.2,1,0.1,1-0.4C87.5,28.1,87.6,27.8,87.6,27.4C87.6,27.4,87.6,27.4,87.6,27.4"/>
	<path clip-path="url(#SVGID_2_)" fill="#B8BBAF" d="M82,31.2c-0.3,0-0.3-0.3-0.3-0.5c0-0.2,0-0.5,0.3-0.5c0.3,0,0.3,0.3,0.3,0.5
		C82.3,30.9,82.2,31.2,82,31.2 M82.5,30c-0.3,0-0.6-0.2-0.8-0.1c-0.4,0.1-0.5,0.7-0.3,1.2c0.2,0.4,0.4,0.5,0.9,0.3
		c0.1,0.2,0,0.4-0.1,0.5c-0.2,0.1-0.3,0.1-0.4-0.1c-0.1-0.1-0.2-0.1-0.3,0c-0.1,0.1,0,0.3,0.1,0.3c0.2,0.2,0.5,0.2,0.8,0.1
		c0.2-0.1,0.3-0.3,0.3-0.5c0-0.4,0-0.7,0-1.1C82.6,30.3,82.6,30,82.5,30"/>
	<path clip-path="url(#SVGID_2_)" fill="#B8BBAF" d="M86.1,31.2c-0.3,0-0.3-0.3-0.3-0.5c0-0.2,0-0.5,0.3-0.5c0.3,0,0.3,0.3,0.3,0.5
		C86.4,30.9,86.4,31.2,86.1,31.2 M86.7,30.8c0-0.1,0-0.2,0-0.3c0-0.2,0-0.5,0-0.7c0-0.1,0.1-0.3-0.1-0.4c-0.3,0-0.2,0.2-0.2,0.3
		c0,0.2,0,0.4-0.3,0.3c-0.3-0.1-0.6,0.1-0.6,0.5c-0.1,0.6,0.1,1.1,0.5,1.1c0,0,0,0,0,0c0.2-0.1,0.5,0,0.7-0.1
		C86.8,31.3,86.7,31,86.7,30.8"/>
	<path clip-path="url(#SVGID_2_)" fill="#B8BBAF" d="M74.3,27.9c-0.3,0-0.3-0.3-0.3-0.5c0-0.2,0-0.5,0.4-0.5c0.3,0,0.3,0.3,0.3,0.5
		C74.6,27.6,74.6,27.9,74.3,27.9 M74.3,26.5c-0.4,0-0.7,0.3-0.7,0.8c0,0.5,0.3,0.8,0.7,0.8c0.4,0,0.7-0.3,0.7-0.8
		C74.9,26.8,74.7,26.5,74.3,26.5"/>
	<path clip-path="url(#SVGID_2_)" fill="#B8BBAF" d="M88.7,27.6c0,0.2-0.1,0.3-0.3,0.3c-0.1,0-0.2-0.1-0.2-0.2
		c0-0.2,0.2-0.2,0.3-0.3C88.7,27.4,88.7,27.5,88.7,27.6 M89,27.9c0-0.1,0-0.3,0-0.4c0-0.2,0-0.4,0-0.6c0-0.2-0.1-0.4-0.3-0.4
		c-0.2,0-0.5-0.1-0.6,0.1c-0.1,0.1-0.1,0.1-0.1,0.2c0,0.1,0.1,0.1,0.2,0c0.2-0.1,0.4-0.2,0.5,0c0.1,0.3-0.2,0.2-0.4,0.3
		c0,0-0.1,0-0.1,0c-0.3,0.1-0.4,0.4-0.3,0.6c0.1,0.3,0.3,0.3,0.6,0.2c0.1,0,0.2-0.1,0.3,0C89,28.2,89.1,28.1,89,27.9"/>
	<path clip-path="url(#SVGID_2_)" fill="#B8BBAF" d="M88.1,30.4c0-0.1,0.1-0.2,0.3-0.2c0.2,0,0.2,0.1,0.3,0.2c0,0.2-0.1,0.2-0.2,0.2
		C88.2,30.6,88.1,30.6,88.1,30.4 M88.4,30.8c0.2,0,0.5,0.1,0.5-0.1c0.1-0.3,0-0.5-0.3-0.7c-0.3-0.2-0.5-0.1-0.7,0.1
		c-0.2,0.2-0.2,0.4-0.2,0.7c0,0.2,0,0.3,0.1,0.5c0.2,0.3,0.6,0.4,0.9,0.1c0.1-0.1,0.2-0.1,0.1-0.3c-0.1-0.1-0.2-0.1-0.3,0
		c0,0,0,0-0.1,0.1c-0.1,0.1-0.2,0.1-0.3,0c-0.1-0.1-0.1-0.2-0.1-0.3C88.1,30.8,88.3,30.8,88.4,30.8"/>
	<path clip-path="url(#SVGID_2_)" fill="#B8BBAF" d="M84.3,27.9c-0.3,0-0.4-0.3-0.4-0.5c0-0.2,0-0.5,0.4-0.5c0.3,0,0.3,0.3,0.3,0.5
		C84.7,27.6,84.6,27.9,84.3,27.9 M84.3,26.5c-0.4,0-0.7,0.3-0.7,0.8c0,0.5,0.2,0.8,0.7,0.8c0.4,0,0.7-0.3,0.7-0.8
		C85,26.9,84.7,26.5,84.3,26.5"/>
	<path clip-path="url(#SVGID_2_)" fill="#B8BBAF" d="M78.5,27.6c0,0.2-0.1,0.3-0.3,0.3c-0.1,0-0.2-0.1-0.2-0.2
		c0-0.2,0.2-0.2,0.3-0.3C78.5,27.4,78.5,27.5,78.5,27.6 M78.8,27.8c0-0.1,0-0.2,0-0.4h0c0-0.2,0-0.4,0-0.5c0-0.2-0.1-0.4-0.3-0.4
		c-0.2,0-0.5-0.1-0.6,0.2c0,0.1-0.1,0.1-0.1,0.2c0,0.1,0.1,0.1,0.2,0c0.2-0.1,0.4-0.3,0.5,0c0.1,0.3-0.3,0.2-0.4,0.3c0,0,0,0,0,0
		c-0.3,0.1-0.4,0.3-0.3,0.6c0.1,0.3,0.3,0.3,0.5,0.3c0.1,0,0.2-0.1,0.3-0.1C78.8,28.2,78.9,28.1,78.8,27.8"/>
	<path clip-path="url(#SVGID_2_)" fill="#B8BBAF" d="M84.6,30.6c-0.1,0-0.3,0-0.3-0.1c0-0.2,0.1-0.3,0.3-0.3c0.1,0,0.2,0.1,0.2,0.3
		C84.8,30.6,84.7,30.6,84.6,30.6 M84.8,30c-0.3-0.2-0.5-0.1-0.7,0.1c-0.1,0.2-0.2,0.4-0.2,0.7c0,0.2,0,0.4,0.1,0.5
		c0.2,0.3,0.7,0.4,0.9,0c0-0.1,0.1-0.2,0-0.2c-0.1-0.1-0.1-0.1-0.2,0c-0.1,0.1-0.3,0.2-0.4,0.1c-0.1-0.1-0.1-0.2-0.1-0.3
		c0.1-0.2,0.3-0.1,0.4-0.1c0.1,0,0.3,0.1,0.4-0.1C85.2,30.4,85.1,30.1,84.8,30"/>
	<path clip-path="url(#SVGID_2_)" fill="#B8BBAF" d="M22.2,0.6C10.3,0.6,0.6,10,0.6,21.5s9.7,20.9,21.6,20.9S43.9,33,43.9,21.5
		S34.2,0.6,22.2,0.6 M22.2,43C10,43,0,33.4,0,21.5S10,0,22.2,0s22.2,9.6,22.2,21.5S34.5,43,22.2,43"/>
	<path clip-path="url(#SVGID_2_)" fill="#B8BBAF" d="M12.1,21.5v0.7l1,0.1l0.2,0.2v2.4c-0.5,0-1-0.1-1.5-0.2
		c-1.2-0.5-1.8-1.6-1.8-3.1c0-1.2,0.4-2,0.9-2.5c0.4-0.4,1.1-0.8,2.1-0.8c0.3,0,0.4,0,0.8,0.1l0.2,0.2l0.3,1.5h1.1v-2.2
		c-1-0.3-2-0.4-2.9-0.4c-1.4,0-2.5,0.4-3.2,0.8c-0.9,0.6-1.7,1.7-1.7,3.3c0,0.8,0.2,2.3,1.7,3.3c1,0.7,2.2,0.9,3.1,0.9
		c1.1,0,2.1-0.3,3-0.6v-2.7l0.2-0.2l0.8-0.1v-0.7H12.1z M17.1,25.5h3.1v-0.7l-0.8,0l-0.1-0.2v-6.2h0l2.4,7.2h1.3l2.4-7.2h0v6.2
		l-0.1,0.2l-0.8,0v0.7h4v-0.7l-0.9,0l-0.1-0.2v-6.2l0.1-0.2l0.9,0v-0.7h-4v0.3l-1.7,5l-1.7-5v-0.3h-4v0.7l0.9,0l0.1,0.2v6.2
		l-0.1,0.2l-0.9,0V25.5z M29.6,25.5h4.3v-0.7l-0.9,0l-0.2-0.2v-1.9c0.2,0,0.5,0,0.7,0c1,0,2-0.2,2.7-0.7c0.4-0.3,0.9-0.9,0.9-2
		c0-0.9-0.3-1.6-1.1-2c-0.3-0.2-0.9-0.4-2.3-0.4h-4v0.7l0.9,0l0.2,0.2v6.2l-0.2,0.2l-0.8,0V25.5z M32.8,18.3h0.5
		c0.6,0,0.9,0.3,1.1,0.6c0.2,0.3,0.3,0.8,0.3,1.2c0,0.6-0.2,1.2-0.5,1.4c-0.4,0.3-0.9,0.3-1.3,0.3h-0.1V18.3z"/>
	<path clip-path="url(#SVGID_2_)" fill="#B8BBAF" d="M22.2,4.8c-9.5,0-17.3,7.5-17.3,16.7s7.8,16.7,17.3,16.7s17.3-7.5,17.3-16.7
		S31.8,4.8,22.2,4.8 M22.2,40.6C11.3,40.6,2.5,32,2.5,21.5S11.3,2.4,22.2,2.4S42,11,42,21.5S33.1,40.6,22.2,40.6"/>
	<path clip-path="url(#SVGID_2_)" fill="#B8BBAF" d="M196.1,41.6c11.3,0,20.4-9,20.3-20.3c-0.1-11-9.2-19.9-20.4-19.9
		c-11.2,0-20.3,9.1-20.3,20.3C175.8,32.6,185,41.6,196.1,41.6 M196.1,42.2c-11.5,0-20.9-9.3-20.9-20.7c0-11.4,9.4-20.7,20.8-20.7
		c11.9,0,21.1,9.2,21.1,21C217.1,33,207.6,42.2,196.1,42.2"/>
	<path clip-path="url(#SVGID_2_)" fill="#B8BBAF" d="M182.2,21.5c0,7.7,6.2,13.8,14.1,13.7c7.6,0,13.8-6.4,13.7-14
		C210,13.8,203.7,7.8,196,7.8C188.4,7.8,182.2,14,182.2,21.5 M196.2,7.4c7.9,0,14.2,6.3,14.2,14.2c0,7.8-6.4,14-14.3,14
		c-7.9,0-14.2-6.3-14.2-14.1C181.9,13.7,188.3,7.4,196.2,7.4"/>
	<path clip-path="url(#SVGID_2_)" fill="#B8BBAF" d="M194.9,40.7c-0.3,0-0.5-0.1-0.8-0.1c0.2-0.9,0.3-1.8,0.4-2.7
		c-0.1,0-0.1,0-0.2-0.1c-0.3,0.7-0.6,1.3-1,2c-0.1,0.2-0.1,0.6-0.6,0.5c-0.4-0.1-0.5-0.3-0.5-0.7c0-0.8-0.1-1.5-0.4-2.3
		c-0.2,0.8-0.3,1.7-0.5,2.6c-0.2,0-0.5,0-0.8,0c0.2-1.3,0.4-2.5,0.7-3.7c0-0.1,0.3-0.2,0.4-0.2c0.3,0.1,0.9-0.1,0.9,0.5
		c0.1,0.8,0.2,1.5,0.4,2.3c0.3-0.5,0.5-1,0.8-1.5c0.5-1,0.6-1.1,1.7-0.6C195.4,38.1,195.1,39.3,194.9,40.7"/>
	<path clip-path="url(#SVGID_2_)" fill="#B8BBAF" d="M189,5.7c0.5-0.2,0.9-0.3,1.3-0.6c0.2-0.1,0.3-0.5,0.2-0.6
		c-0.1-0.2-0.4-0.3-0.6-0.3c-0.4,0.1-0.8,0.3-1.3,0.4C188.7,5,188.8,5.3,189,5.7 M187.5,4.4c0.8-0.3,1.6-0.6,2.4-0.9
		c0.5-0.2,1,0,1.3,0.4c0.3,0.5,0.2,1-0.2,1.4c-0.1,0.1-0.1,0.1-0.2,0.2c0.6,0.4,1.2,0.7,1.8,1.1c-0.6,0.4-1,0.4-1.5,0.1
		c-0.4-0.3-0.8-0.5-1.2-0.6c-0.2-0.1-0.4,0.1-0.8,0.1c0.2,0.6,0.4,1,0.6,1.6c-0.2,0.1-0.5,0.2-0.8,0.3C188.5,6.8,188,5.6,187.5,4.4"
		/>
	<path clip-path="url(#SVGID_2_)" fill="#B8BBAF" d="M206.5,37.9c-0.8-1.1-1.6-2.1-2.4-3.1c0.4-0.6,0.8-0.5,1.3-0.3
		c0.7,0.3,1.5,0.5,2.3,0.6c-0.5-0.6-1-1.3-1.5-2c0.2-0.2,0.4-0.3,0.6-0.5c0.8,1.1,1.6,2.1,2.4,3.1c-0.3,0.4-0.6,0.6-1.2,0.4
		c-0.8-0.3-1.6-0.5-2.4-0.7c0.5,0.6,0.9,1.3,1.4,1.9C206.9,37.5,206.7,37.7,206.5,37.9"/>
	<path clip-path="url(#SVGID_2_)" fill="#B8BBAF" d="M187.9,38c0.7,0,1.5-0.8,1.5-1.6c0-0.6-0.6-1.2-1.3-1.2c-0.7,0-1.4,0.8-1.4,1.6
		C186.6,37.4,187.2,38,187.9,38 M188.2,38.7c-1.2,0-2.4-1-2.4-2.1c0-1.1,1-2.2,2.1-2.2c1.2,0,2.3,1,2.3,2.1
		C190.2,37.7,189.2,38.7,188.2,38.7"/>
	<path clip-path="url(#SVGID_2_)" fill="#B8BBAF" d="M210.4,9.6c-0.8,0.6-1.4,1.1-2.2,1.6c0.4,0.5,0.6,1.1,1.3,1.2
		c0.5,0,1.4-0.7,1.6-1.2C211.4,10.6,210.8,10.2,210.4,9.6 M207.2,11c1.1-0.8,2.1-1.6,3.3-2.5c0.5,0.7,1,1.4,1.4,2.1
		c0.4,0.7,0,1.6-1,2.2c-0.8,0.6-1.6,0.6-2.2,0C208.1,12.2,207.7,11.6,207.2,11"/>
	<path clip-path="url(#SVGID_2_)" fill="#B8BBAF" d="M185.2,8.6c0.2,0.3,0.4,0.6,0.7,0.9c0.7-0.5,1.3-1,2-1.5
		c0.1,0.2,0.2,0.3,0.4,0.5c-0.9,0.7-1.8,1.3-2.7,2c-0.8-1-1.6-2.1-2.5-3.2c0.9-0.6,1.7-1.3,2.6-2c0.1,0.1,0.2,0.3,0.4,0.5
		c-0.7,0.5-1.3,1-1.9,1.5c0.2,0.3,0.3,0.5,0.6,0.8c0.6-0.4,1.2-0.9,1.8-1.3c0.1,0.1,0.3,0.3,0.4,0.4C186.4,7.7,185.8,8.1,185.2,8.6"
		/>
	<path clip-path="url(#SVGID_2_)" fill="#B8BBAF" d="M206.1,7c0.6,0.5,1.2,0.9,1.8,1.3c-0.1,0.2-0.2,0.3-0.4,0.5
		c-0.6-0.4-1.2-0.8-1.8-1.3c-0.2,0.3-0.4,0.6-0.7,0.9c0.7,0.5,1.3,1,2,1.5c-0.1,0.2-0.2,0.3-0.4,0.5c-0.9-0.7-1.8-1.3-2.7-2
		c0.8-1.1,1.6-2.1,2.4-3.2c0.9,0.6,1.7,1.3,2.6,1.9c-0.1,0.2-0.2,0.3-0.3,0.5c-0.7-0.5-1.3-0.9-1.9-1.4C206.4,6.5,206.3,6.7,206.1,7
		"/>
	<path clip-path="url(#SVGID_2_)" fill="#B8BBAF" d="M202.2,38.1c0.4-0.2,0.8-0.3,1.1-0.5c-0.4-0.4-0.7-0.7-1.1-1.1V38.1z
		 M205.3,38.5c-0.5,0.3-0.9,0.4-1.3-0.1c-0.1-0.1-0.4-0.1-0.5-0.1c-0.4,0.1-0.7,0.2-1,0.4c-0.2,0.1-0.4,0.4-0.4,0.6
		c0,0.5-0.2,0.7-0.7,0.8c0-1.4,0-2.7,0-4.1c0-0.4,0.8-0.6,1.1-0.3C203.5,36.6,204.4,37.6,205.3,38.5"/>
	<path clip-path="url(#SVGID_2_)" fill="#B8BBAF" d="M197.4,37.3c0.1,0.4,0.2,1,0.4,1c0.4,0,0.9-0.2,1.3-0.3c0.1,0,0.1-0.5,0-0.6
		C198.6,36.9,198.1,37.2,197.4,37.3 M197.7,39.1c0,0.5,0.1,1,0.1,1.5c-0.3,0-0.5,0-0.8,0.1c-0.2-1.3-0.3-2.5-0.5-3.7
		c0-0.1,0.2-0.3,0.3-0.3c0.7-0.1,1.4-0.2,2-0.2c0.6,0,1.1,0.4,1.1,1c0.1,0.7-0.2,1.2-0.9,1.4c-0.2,0.1-0.5,0.1-0.7,0.1
		C198.3,39,198,39.1,197.7,39.1"/>
	<path clip-path="url(#SVGID_2_)" fill="#B8BBAF" d="M185.8,34.1c-0.4-0.2-0.6-0.3-0.6-0.8c0.1-0.8-0.9-1.3-1.6-0.9
		c-0.2,0.1-0.4,0.3-0.5,0.4c-0.4,0.4-0.8,0.9-0.4,1.5c0.3,0.6,0.9,0.7,1.5,0.4c0.1,0.2,0.2,0.4,0.4,0.6c-0.7,0.5-1.6,0.3-2.2-0.4
		c-0.7-0.8-0.7-1.8,0-2.6c0.8-0.9,1.8-1.1,2.7-0.5C185.9,32.4,186.2,33.2,185.8,34.1"/>
	<path clip-path="url(#SVGID_2_)" fill="#B8BBAF" d="M183.4,10.8c0.2-0.2,0.4-0.3,0.6-0.4c0.6,0.8,0.5,1.6-0.2,2.4
		c-0.7,0.7-1.7,0.8-2.6,0.3c-1-0.7-1.3-1.6-0.9-2.5c0.3-0.8,1.3-1.6,2.2-1.1c-0.1,0.4-0.1,0.8-0.7,0.7c-0.1,0-0.2,0-0.3,0.1
		c-0.5,0.2-0.8,0.9-0.6,1.4c0.3,0.7,1.4,1.3,1.9,1c0.6-0.2,0.8-0.8,0.6-1.4C183.5,11.1,183.5,11,183.4,10.8"/>
	<path clip-path="url(#SVGID_2_)" fill="#B8BBAF" d="M200,5.2c-0.2,0.6-0.3,1.1-0.5,1.6c-0.3-0.1-0.5-0.1-0.8-0.2
		c0.4-1.3,0.7-2.5,1-3.8c1,0.3,1.9,0.5,2.9,0.8c-0.1,0.2-0.1,0.4-0.2,0.6c-0.7-0.2-1.4-0.3-2.1-0.5c-0.1,0.3-0.2,0.6-0.3,0.9
		c0.5,0.1,0.9,0.3,1.4,0.4c0.4,0.1,0.5,0.3,0.2,0.7C201.2,5.5,200.7,5.3,200,5.2"/>
	<path clip-path="url(#SVGID_2_)" fill="#B8BBAF" d="M209.7,31.5c0.1-0.8-1.1-1.6,0-2.4c0.6,1.3,0.6,2.9,2.3,3.5
		c-0.2,0.3-0.4,0.5-0.6,0.8c-1-1.5-2.6-1-4-1.2C207.9,30.9,209,31.8,209.7,31.5"/>
	<path clip-path="url(#SVGID_2_)" fill="#B8BBAF" d="M196,3c-1.2,0.2-1.2,0.2-1.1,1.5c0.1,0.6,0.1,1.3,0.2,2c-0.3,0-0.5,0.1-0.8,0.1
		c-0.1-1.1-0.2-2.2-0.3-3.3c-0.5,0-0.9-0.1-1.3-0.1c0,0,0-0.3,0-0.5c1-0.1,2-0.2,3-0.3c0.2,0,0.4,0.2,0.5,0.3
		C196.1,2.9,196.1,2.9,196,3"/>
	<path clip-path="url(#SVGID_2_)" fill="#B8BBAF" d="M204.1,4.1c0.3,0.1,0.5,0.2,0.8,0.4c-0.6,1.2-1.1,2.3-1.7,3.6
		c-0.3-0.1-0.5-0.2-0.8-0.4C202.9,6.5,203.5,5.4,204.1,4.1"/>
	<path clip-path="url(#SVGID_2_)" fill="#B8BBAF" d="M197.4,2.5c0.3,0,0.5,0.1,0.8,0.1c-0.1,1.3-0.2,2.6-0.3,3.9H197
		C197.1,5.1,197.2,3.8,197.4,2.5"/>
	<path clip-path="url(#SVGID_2_)" fill="#B8BBAF" d="M204.5,20.2h-0.8v1.2h0.8c0.4,0,0.7-0.1,0.7-0.6
		C205.1,20.4,204.9,20.2,204.5,20.2"/>
</g>
<polygon fill="#B8BBAF" points="191.5,22 192.6,22 192,20.5 "/>
<g>
	<defs>
		<rect id="SVGID_3_" width="217.1" height="43"/>
	</defs>
	<clipPath id="SVGID_4_">
		<use xlink:href="#SVGID_3_"  overflow="visible"/>
	</clipPath>
	<path clip-path="url(#SVGID_4_)" fill="#B8BBAF" d="M204.6,22h-0.9v1.4h-0.9v-3.9h1.8c0.9,0,1.5,0.4,1.5,1.2
		C206,21.7,205.4,22,204.6,22 M200.4,23.6c-1.2,0-2-0.8-2-2.1c0-1.2,0.7-2.1,2-2.1c1,0,1.7,0.7,1.7,1.4h-0.9
		c-0.1-0.4-0.4-0.7-0.9-0.7c-0.8,0-1.1,0.7-1.1,1.4c0,0.8,0.4,1.3,1.1,1.3c0.5,0,0.9-0.3,0.9-0.9h0.9
		C202.1,22.9,201.5,23.6,200.4,23.6 M196.2,23.6c-1.2,0-2-0.8-2-2.1c0-1.2,0.7-2.1,2-2.1c1,0,1.7,0.7,1.7,1.4h-0.9
		c-0.1-0.4-0.4-0.7-0.9-0.7c-0.8,0-1.1,0.7-1.1,1.4c0,0.8,0.4,1.3,1.1,1.3c0.5,0,0.8-0.3,0.9-0.9h0.9
		C197.9,22.9,197.3,23.6,196.2,23.6 M193.1,23.5l-0.3-0.9h-1.5l-0.3,0.9H190l1.5-3.9h0.9l1.5,3.9H193.1z M189.7,23.5h-0.8v-1.7h-1.7
		v1.7h-0.9v-3.9h0.9V21h1.7v-1.4h0.8V23.5z M196.1,8.3c-7.4,0-13.4,5.9-13.4,13.2c0,7.3,6,13.3,13.4,13.3c7.4,0,13.4-5.9,13.4-13.3
		C209.6,14.2,203.6,8.3,196.1,8.3"/>
</g>
</svg>
