<?xml version="1.0" encoding="utf-8"?>
<!-- Generator: Adobe Illustrator 18.1.1, SVG Export Plug-In . SVG Version: 6.00 Build 0)  -->
<svg version="1.1" id="Layer_1" xmlns="http://www.w3.org/2000/svg" xmlns:xlink="http://www.w3.org/1999/xlink" x="0px" y="0px"
	 viewBox="0 0 70 70" enable-background="new 0 0 70 70" xml:space="preserve">
<g>
	<defs>
		<rect id="SVGID_1_" x="-400" y="-180" width="870" height="250"/>
	</defs>
	<clipPath id="SVGID_2_">
		<use xlink:href="#SVGID_1_"  overflow="visible"/>
	</clipPath>
	
		<path clip-path="url(#SVGID_2_)" fill="none" stroke="#FFFFFF" stroke-width="3" stroke-linecap="round" stroke-linejoin="round" stroke-miterlimit="10" d="
		M435-111.5c18.5,0,33.5-15,33.5-33.5s-15-33.5-33.5-33.5c-18.5,0-33.5,15-33.5,33.5S416.5-111.5,435-111.5z"/>
	
		<path clip-path="url(#SVGID_2_)" fill="none" stroke="#FFFFFF" stroke-width="3" stroke-linecap="round" stroke-linejoin="round" d="
		M450-162.5c0.2,2.3-0.6,2.7-0.8,2.2c-0.2-0.3-0.2,0.4-0.3,0.5c0,0,0,0,0,0c-0.1,0-0.2-0.1-0.2-0.1c-0.1-0.1-0.7-0.2-0.9-0.5
		c0,0,0,0,0,0c0-0.1-0.8-1.1-0.8-1c-0.2,0.3-0.5-0.3-0.7,0.3c-0.1,0.4-0.3,0.5-0.4,0.9c-0.2,0.5-0.2,0.5-0.2,0.7c0,0,0,0,0,0
		c0,0.2,0,0.3-0.1,0.4c-0.1,0.1-0.2,0.2-0.2,0.2c-0.2,0-0.3,0.1-0.5,0c-0.1-0.1-0.3,0.3-0.4,0.1c-0.3-0.4-0.5-1-0.6-1.8l-0.2-0.8
		c0,0,0,0,0,0c0-0.1,0-0.1,0-0.2c0-0.1,0-0.2,0.1,0c0,0,0,0,0,0c0,0,0,0,0,0c0,0,0-0.1,0-0.1c0-0.5-0.1-1.2,0-1.7c0,0,0,0,0,0
		c0-0.3,0.1-0.2,0.2-0.5c0-0.3,0-0.6,0-1c0-0.2,0-1.6,0-1.6h0c0.1-0.1,0.1-0.3,0.1-0.6c0-0.6,0.1-1.2,0.2-1.7c0-0.1,0.1-0.4,0.1-1.2
		c0-0.3,0-0.4,0.2-0.5c0.2-0.2,0.3-0.2,0.5-0.1c0.1,0,0.2,0.1,0.3,0.2c0,0,0,0,0,0.1v0c0,0,0,0.1,0,0.1c0,0.1-0.1,0.2,0,0.4
		c0,0.2,0,0.3,0.1,0.3c0.1,0,0.1-0.1,0.2-0.2c0.1-0.1,0.1-0.2,0.2,0c0,0.1,0.1,0.3,0.1,0.5c0,0.5-0.2,0.5-0.2,0.8
		c0,0.2,0,0.3,0.1,0.3c0.2,0.2,0.3,0.7,0.4,1.4c0,0,0,0,0,0.1c0,0.1,0,0.2,0.1,0.2c0,0,0.4-1.4,0.4-1.5c0,0,0,0,0,0
		c0-0.2-0.1-0.3-0.1-0.4c-0.1-0.3-0.2-0.8-0.2-1.3c0-0.6,0.1-1.1,0.2-1.5c0,0,0,0,0,0l0.7-1.5l0,0c0,0,0,0,0,0l0,0c0,0,0,0,0,0
		s0,0,0,0c0,0,0.3-0.7,0.4-0.7c0,0,0.1,0.3,0.1,0.5c0,0.1,0,0.4-0.1,0.5c-0.1,0.2-0.3,0.7-0.3,1.1c0,0.5,0.2,0.3,0.3,0.5
		c0.1,0.1,0,0.3,0,0.5c0,0,0,0,0,0c0,0.6-0.1,1.2-0.2,1.7c0,0,0,0.1,0,0.1c0,0.4,0,0.4,0.4,0.9c0.2,0.2,0.3-0.1,0.5,0.3
		c0.4,0.8,0.6,2.1,1,2.6C449.5-164.4,449.9-163.8,450-162.5z"/>
	
		<path clip-path="url(#SVGID_2_)" fill="none" stroke="#FFFFFF" stroke-width="3" stroke-linecap="round" stroke-linejoin="round" d="
		M421.4-174c0,0,0.3,0,0.3,0.1c0,0-0.1,0.1-0.1,0.1c0,0,0,0,0,0c0,0-0.1,0.1-0.2,0.1c0,0,0,0.1,0.1,0.1c0.1,0,0.2,0,0.2-0.1
		c0,0,0,0,0.2-0.1c0.1,0,0.1,0,0.3-0.1c0.2-0.1,0.5-0.1,0.6-0.2c0.1-0.1,0.2-0.1,0.3-0.1c0,0,0.1,0,0.1,0c0,0,0.8-0.2,0.7-0.3
		c0-0.1,0-0.1,0.1-0.1c0.1,0,0.1,0,0.1,0c0.2-0.1,0.6-0.3,0.9-0.2c0.1,0,0.1,0,0.2,0c0.3-0.1,0.3-0.1,0.2,0c-0.1,0-0.3,0.1-0.2,0.1
		c0,0,0,0,0,0c0.1,0,0.2,0,0.4,0c0.2,0,0.5,0,0.7-0.1c0,0,0,0,0,0c0,0,0,0,0,0c0.6-0.2,0.8-0.3,0.9-0.2c0,0,0.1,0,0.1,0.1l0,0
		c0,0,0,0,0,0c0.1,0,0.2,0,0.2,0c0,0,0.1,0,0.1,0c0,0,0,0,0.2,0c0,0,0.2,0,0.1,0.1c0,0.1,3.5-0.4,5.8-1.6c0.6-0.3,1.3-0.6,1.6-0.7
		c0,0,0.3-0.1,0-0.1c-0.3,0-0.9,0-1.6,0c-2.5,0-4.9,0.2-6,0.3c0,0-1.2,0.2-1.1,0.2c0.1,0,0.1,0.1,0,0.2c-0.3,0.1-0.6,0.1-0.8,0.2
		c0,0,0,0,0,0s0,0,0.1,0c0,0,0.1,0,0.3-0.1c0,0,0.1,0,0.1,0c0,0,0,0,0,0c-0.1,0-0.2,0-0.3,0.1c0,0,0,0,0,0c0,0,0,0.1,0,0.1
		c0,0,0,0,0,0c0,0,0,0,0,0c0,0-1,0.4-1.4,0.4c0,0,0,0,0,0c-0.4,0-0.9,0.1-1,0.2c-0.1,0.1-0.3,0.1-0.4,0.2c-0.3,0.1-0.6,0.3-0.7,0.4
		c-0.1,0.1,0.1,0.1,0.2,0.1c0,0,0.1,0,0,0c-0.5,0-0.9,0.4-1,0.5c0,0,0,0.1,0,0.1c0,0,0,0,0,0c0,0,0,0-0.1,0.1
		C421.6-174.2,421.6-174.2,421.4-174C421.4-174,421.4-174,421.4-174z"/>
	
		<path clip-path="url(#SVGID_2_)" fill="none" stroke="#FFFFFF" stroke-width="3" stroke-linecap="round" stroke-linejoin="round" d="
		M432.7-165.7L432.7-165.7L432.7-165.7L432.7-165.7L432.7-165.7v-0.2v-0.2v-0.4v0c0,0,0-0.2-0.8-0.2v0v-0.1v-0.2v-0.2v-0.2v0v-0.4v0
		v0v0v0v0v-0.2v-0.3v-0.3v-1v-0.4v-0.2v0v0v-0.2v-0.1v-0.2v-0.1v0v0.1v0.4v0v0v0v0v0.1v0.2v0v0v0.1v0.2v0v0v0v0v0.3v0v0.5v0v0.1v0
		v-0.1v-0.1v-0.1v0v0.1v0.4v0.1v0.1v0.1v0v0v0v0v0v0.1v0.2v0v0v0.6v0.1v0v0.1v0.1v0.2v0v0v0v0v-0.1v0.4v0.2v0v0.2v0v0.2v0v0v0v-0.1
		v0.1v0.1v0.1v0v0.3v0.2v0.1v0v-0.1v0.1v0v0v-0.3v0.1v-0.2v0.1v0v0.1v0c0,0,0.8-0.1,0.8-0.2v0v0V-165.7z"/>
</g>
<polygon fill="none" stroke="#FFFFFF" stroke-width="3" stroke-linecap="round" stroke-linejoin="round" points="431.4,-165.5 
	431.4,-165.6 431.4,-165.8 431.4,-165.8 431.4,-166.3 431.4,-165.9 431.4,-165.9 431.4,-165.8 431.4,-165.6 431.4,-165.5 
	431.4,-165.4 431.4,-165.1 431.4,-164.9 431.4,-164.9 431.4,-165 431.4,-165 431.4,-165.1 431.4,-165.3 "/>
<g>
	<defs>
		<rect id="SVGID_3_" x="-400" y="-180" width="870" height="250"/>
	</defs>
	<clipPath id="SVGID_4_">
		<use xlink:href="#SVGID_3_"  overflow="visible"/>
	</clipPath>
	
		<path clip-path="url(#SVGID_4_)" fill="none" stroke="#FFFFFF" stroke-width="3" stroke-linecap="round" stroke-linejoin="round" d="
		M414.6-135.8c-0.1-0.7-2.5-3.1-3.2-3.5c-0.5-0.4-0.9-0.4-0.9-0.4c0,0,0,0,0-0.1c0-0.1-0.1-0.4-0.4-0.6c-0.1-0.1-0.2-0.2-0.2-0.3
		c-0.1-0.1-0.3-0.2-0.4-0.2c-0.2,0-0.3,0.1-0.4,0.1l0,0.1c0,0,0,0,0.1-0.2c0.1-0.2,0.1-0.3-0.3-0.7c-0.2-0.2-0.3-0.2-0.1-0.4
		c0,0,0.1-0.2,0.2-0.5c0-0.3-1.4-2.3-2.6-3.5c0,0-0.1-0.1-0.1-0.1c0,0,0,0-0.1,0c-0.1-0.1-0.7-2-0.8-2.4c0,0,0,0,0-0.1
		c0.1-0.1,0.1-0.3,0.1-0.4c0-0.1-0.1-0.3-0.1-0.4c0-0.2-0.3-0.4-0.3-0.4c-0.1,0-0.1,0-0.2,0c-0.1,0-0.1-0.1-0.1-0.1
		c-0.1-0.2-0.3-0.4-0.6-0.4c-0.1,0-0.1,0-0.1-0.1c0,0,0,0-0.2,0.7c-0.1,0.7-0.3,2.3-0.3,3.8c0,7.4,3.3,14.1,6.5,17
		c0,0,2.2,2,2.1,1.9c-0.1-0.1-0.4-0.6-0.4-0.7c0-0.2-0.1-0.4-0.1-0.6c-0.1-0.2-0.1-0.3-0.2-0.5c-0.3-0.5,0.9-0.6,1.3-1.1
		c0,0,0,0,0,0c0,0,0.2-0.1,0.5,0.1c0.2,0.1,0.5-0.2,0.4-0.3c-0.1-0.3-0.1-0.4,0-0.6c0.1-0.5-0.1-1.7-0.1-1.8c-0.2-0.5-0.3-0.8-0.3-1
		c0-0.1,0.3-0.2,0.4-0.3c0.1-0.3,0.8-0.9,0.9-1.2C414.5-135.3,414.6-135.5,414.6-135.8z"/>
	
		<path clip-path="url(#SVGID_4_)" fill="none" stroke="#FFFFFF" stroke-width="3" stroke-linecap="round" stroke-linejoin="round" d="
		M420-174.4c0-0.1-0.1-0.1-0.2-0.1c-0.1,0-0.2,0.1-0.2,0c0,0,0,0,0-0.1c0,0,0.1-0.1,0.1-0.2c0,0,0-0.1,0-0.1c0,0,0,0,0,0
		c0,0,0,0-1.2,0.8c-1.2,0.8-3.5,2.8-4.4,4c0,0-0.9,1.2-0.9,1.2c0,0,0,0,0,0c0.3,0.1,0.3,0,0.5-0.3c0.1-0.2,0.4-0.3,0.6-0.4
		c0.1-0.1,0.4-0.1,0.4-0.1c0.1,0,0.6,0.1,0.7,0c0.1-0.1,0-0.1,0-0.2c0.1-0.1,0.1-0.2,0.1-0.3c0-0.1,0.1-0.1,0.2-0.2
		c0.1-0.1,0-0.1,0-0.1c0,0,0-0.2,0-0.2c0,0,0,0,0,0c0.1,0.1,0.2,0.1,0.2,0.1c0.1,0,0.1-0.1,0.1-0.1c0,0,0-0.1,0.1-0.1c0,0,0,0,0,0
		s0,0,0.1-0.3c0.1-0.3-0.8,0-0.8,0c0-0.1,0.5-0.3,0.5-0.3l0,0l0,0c0,0,0,0,0,0c0,0,0.1,0,0.1,0c0.2-0.1,0.5,0,0.6,0.2l0,0.1
		c0,0,0,0,0,0s0.1,0.1,0.1,0.1c0.1,0,0.2,0.1,0.2,0c0.4-0.2,0.6,0,0.9-0.2c0,0,0,0,0,0c0.5-0.3,0.5-1.5,1.2-2.2
		c0.1-0.1,0.1-0.1,0.2-0.2c0.1-0.1,0.2-0.2,0.3-0.4c0-0.1,0.1-0.1,0.1-0.2C420.1-174.2,420.1-174.3,420-174.4z"/>
	
		<path clip-path="url(#SVGID_4_)" fill="none" stroke="#FFFFFF" stroke-width="3" stroke-linecap="round" stroke-linejoin="round" d="
		M464.4-155.6c0,0.1,0,0.1,0.1,0.2c-2.5-9.5-9.4-17.1-18.3-20.7c0.1,0,0.1,0.1,0.1,0.2c0,0.2-0.2,0.2-0.2,0.2c0,0.1,0.2,0.3,0.3,0.3
		c0,0,0,0.1,0,0.2c0,0,0,0,0,0c-0.1,0-0.3,0-0.4,0.1c-0.1,0.1-0.3,0.2-0.3,0.2c-0.1,0-0.1,0.1-0.1,0.1v0c0,0-0.1,0-0.2,0
		c-0.2,0.1-0.3,0.5-0.3,0.6c0,0.1,0,0.1,0,0.2c0,0.1-0.1,0.1-0.2,0.1c0,0-0.2,0.1-0.1,0.1c0.1,0.1,0,0.1-0.1,0.1c0,0-0.1,0-0.1,0
		c-0.2-0.1-0.2-0.1-0.3,0.1c0,0.1-0.1,0.2-0.1,0.3c0,0,0,0.1,0,0.2c0.4,0.3-0.2,0.3-0.3,0.2c-0.2-0.1-0.3,0.2,0,0.2
		c0.1,0,0.2,0,0.2,0.1c0,0,0,0,0,0c0.2,0.2-0.2,0.1-0.4,0c-0.2-0.1-0.4-0.2-0.5-0.3c-0.1-0.1-0.1-0.2-0.1-0.3c0-0.1,0.2-0.2,0.3-0.2
		c0.2,0,0.3-0.1,0.4-0.3c0-0.2-0.1-0.4-0.3-0.4c-0.5-0.1-1,0-1.4-0.2c-0.4-0.2-0.7-0.1-0.8-0.3c0-0.1-0.1-0.1,0-0.2
		c-0.2,0-0.3-0.1-0.4-0.1c-0.1,0-0.3,0-0.7,0.1c-0.7,0.2-0.7,0.2-1.4,0.9c0,0-0.1,0.2-0.3,0.4c-0.1,0.1-0.2,0.3-0.3,0.4
		c-0.1,0-0.1,0.1-0.1,0.2v0c0,0,0,0,0,0c-0.1,0-0.1,0.1-0.1,0.1c-0.1,0.3-0.3,0.8-1.6,1.3h0c-0.4,0.2-0.6,0.6-0.6,1
		c0,0.4,0.3,0.8,0.7,0.9c0.5,0.2,0.6-0.4,1.2-0.2c0.2,0.1,0.4,0.2,0.5,0.4c0.1,0.3,0.2,0.4,0.2,0.7c0.1,0.1,0.4,0.4,0.5,0.2
		c0.1-0.4,0.5-0.1,0.7-0.5c0.1-0.3-0.1-0.6,0-0.9c0,0,0,0,0,0c0.1-0.3,0.2-0.7,0.1-1.1c0-0.2,0-0.4,0.1-0.9c0-0.2,0.4-0.3,0.5-0.4
		c0.2-0.2-0.1-0.7,0.3-0.8c0.2,0,0.5,0,0.6,0.2c0,0.1,0,0.1,0,0.2c-0.1,0.1-0.2,0.3-0.3,0.5c-0.2,0.3-0.2,0.7-0.1,1
		c0.1,0.3,0.3,0.5,0.6,0.6c0.1,0,0.2,0,0.2-0.1c0,0,0,0,0,0c0,0,0,0,0,0c0,0,0,0,0,0l0.4-0.1c0.3-0.1,0.7-0.1,1-0.1
		c0,0,0.1,0,0.1,0.1c0,0,0,0.1,0,0.1c-0.4,0.4-0.5,0.1-0.9,0.2c-0.1,0-0.3,0.1-0.3,0.3c0,0.1,0,0.3,0.2,0.3c0,0,0,0,0,0.1v0
		c0,0.1-0.1,0.2-0.2,0.3c-0.1,0-0.2,0-0.3,0c-0.1,0-0.1,0-0.2,0c-0.1,0.1-0.1,0.1-0.1,0.2c0,0.2,0,0.3,0,0.5c0,0,0,0,0,0
		c0.1,0.3-0.4,0.8-0.6,0.7c-0.4-0.1-0.8,0-1.2,0.2c-0.2,0.1-0.4,0.1-0.5-0.1c0,0,0,0,0,0c-0.1-0.1,0-0.1-0.1-0.2
		c0,0-0.7,0.3-0.7,0.3c0,0-0.1,0-0.1,0c0,0,0,0,0-0.1c0,0,0,0,0,0c0-0.2-0.9-0.2-0.2-0.9c0,0,0,0,0,0c0.1-0.1,0.1-0.2,0.1-0.3
		c0-0.2,0-0.3-0.1-0.4c0,0,0,0,0,0c-0.3,0.4-0.5,0.9-0.4,1.3c0,0.5-0.2,0.5-0.4,0.4c-0.1,0-0.2,0-0.2,0.1c0,0,0,0,0,0
		c-0.1,0-0.2,0-0.4,0c-0.1,0-0.2,0-0.2,0.1c0,0,0,0,0,0c0,0,0,0.1-0.1,0.1c-0.1,0-0.3,0.1-0.4,0.2c-0.3,0.2-0.4,0.3-0.7,0.5
		c-0.2,0.1-0.4,0.2-0.5,0.4c-0.1,0.1-0.2,0.1-0.5,0.3c0,0,0,0-0.1,0.1c0,0.1-0.1,0.1-0.1,0.1c-0.3,0-0.3,0-0.5-0.1
		c-0.1-0.1-0.1,0.1-0.1,0.1c0,0,0,0,0,0c0,0.1,0,0.1,0,0.2c0,0.1-0.1,0.1-0.2,0.1c-0.2,0-0.4,0-0.5-0.1c0,0,0,0,0,0
		c-0.3,0.1-0.4,0.4-0.4,0.4c0.5,0.1,0.5,0.1,0.6,0.3c0.2,0.1,0.1,0.6,0.4,0.6c0,0,0,0,0,0c0,0,0.1,0.3,0.1,0.4c0,0,0,0.1,0,0.1
		c-0.1,0.1-0.2,0.2-0.2,0.3c0,0.2,0,0.5-0.2,0.7c-0.1,0.1-0.2,0.2-0.4,0.2c-0.2-0.1-0.4-0.1-0.6-0.1c-0.8,0-1.3-0.2-1.5-0.3
		c-0.2-0.1-0.4,0-0.5,0.1c0,0,0,0,0,0c-0.1,0-0.1,0-0.2,0c-0.1,0-0.2,0.1-0.2,0.2c0.1,0.3,0.1,0.5-0.2,1.3c0,0,0,0.1,0,0.1
		c-0.1,0.2-0.5,0.6-0.4,0.6c0,0,0,0,0,0c0.1,0,0.1,0,0.2,0.1c0,0.1,0,0.1,0,0.2c0,0.1-0.1,0.5-0.1,0.6c0,0.1,0.1,0.1,0.1,0.1
		c0.1,0,0.1,0.1,0.2,0.1c0.1,0,0.2,0,0.3-0.1c0.1,0,0.1-0.1,0.3,0.1c0.1,0.2,0,0.6,0.3,0.6c0.1,0,0.1-0.1,0.2-0.1
		c0-0.1,0-0.1,0.6-0.2c0.3-0.1,0.5,0.1,0.8,0c0.2-0.1,0.2-0.3,0.4-0.4c0.1,0,0.3,0,0.4,0c0.1,0,0-0.3,0.1-0.3c0,0,0,0,0,0
		c0.1-0.1,0.2-0.3,0.1-0.4c0-0.1,0-0.1,0-0.2c0-0.1,0.2-0.2,0.3-0.4c0,0,0,0,0-0.1c0.4-0.3,0.9-0.4,1.3-0.7c0.4-0.2,0.1-0.8,0.5-1
		c0.4-0.2,0.7,0.4,1.1,0.2c0.4-0.3,1-0.6,1.1-0.6c0.1,0,0.2,0,0.3,0.1c0.1,0.1,0.3,0.2,0.3,0.3c0.4,0.6,1.2,0.9,1.6,1.5
		c0.1,0.1,0.4,0.3,0.6,0.4c0.2,0.2,0.1-0.1,0.3,0.3c0,0,0,0,0,0c0.1,0.1,0.3,0.4,0.1,0.5c-0.1,0-0.1,0.1-0.1,0.1
		c0,0.1-0.1,0.2,0,0.2c0,0,0.1,0.1,0.2,0c0.1-0.1,0.1-0.1,0.1-0.2c0.1-0.3,0.1-0.3,0.1-0.3c0,0,0.1,0,0.1-0.1c0-0.2-0.1-0.3-0.2-0.3
		c-0.1,0-0.2-0.1-0.1-0.2c0,0,0,0,0,0c0,0,0,0,0,0c0.1-0.1,0.2-0.2,0.4-0.1c0.1,0,0.2,0.1,0.2,0.2c0,0,0,0,0,0.1c0,0,0,0.1,0,0.1
		c0,0,0.1,0,0.2,0c0,0,0-0.1,0-0.2v0c0,0,0,0,0,0c0,0,0,0,0,0c-0.3-0.4-0.7-0.4-1.1-0.7c0,0-0.1-0.1-0.1-0.1c0-0.1-0.1-0.2-0.2-0.2
		c-0.2,0-0.4-0.1-0.6-0.3l-0.8-1.1c0,0-0.1-0.1-0.1-0.1c-0.1-0.1,0-0.2,0.1-0.2c0,0,0,0,0,0c0.2,0,0.3,0,0.4,0.1
		c0,0.1,0.1,0.1,0.2,0.1c0.1,0,0.2,0,0.3,0.1l1.3,1c0,0,0,0,0,0c0,0,0.1,0,0.3,0.1c0,0,0.1,0,0.1,0c0.1,0,0.1,0,0.2,0.1
		c0.2,0.2,0.3,0.4,0.4,0.7c0,0.1,0,0.2,0,0.3v0c0,0.1,0.1,0.2,0.1,0.2c0,0,0.1,0.1,0.1,0.1c0,0,0,0,0.1,0.1c0,0,0.2,0.2,0.2,0.2
		c0,0,0,0,0,0c0,0,0,0,0.1,0h0c0,0,0.1,0,0.1,0c0.1,0,0.4,0.2,0.5,0.1c0,0,0.2-0.1,0.2-0.1l0,0c0.4-0.2-0.1-0.4-0.1-0.6
		c0-0.1,0-0.1,0.1-0.1c0,0,0.1,0,0.2,0c0,0,0.1,0,0.1,0h0c0,0,0.1-0.1,0.1-0.1c0-0.2,0.3-0.3,0.5-0.3c0.2,0,0.4,0,0.5,0.1
		c0.1,0,0.1,0.1,0.2,0h0c0.1,0,0.3-0.1,0.4-0.1c0.1,0-0.1,0.1-0.3,0.2c0,0,0,0,0,0c-0.1,0-0.2,0.2-0.1,0.3c0.1,0.2,0.5,0.5,0.2,0.8
		c0,0,0,0,0,0h0c0.2,0.1,0.3,0.2,0.4,0.4c0.3,0.5,1.4,0.7,1.5,0.5c0,0,0,0,0,0c0-0.1,0.2-0.2,0.3-0.1c0.2,0.1,0.5,0.3,0.8,0.3
		c0.2,0,0.3-0.1,0.4-0.2c0.3-0.2,0.6-0.4,1-0.4c0,0,0,0,0,0s0,0,0,0c-0.2,1,1,2.2-0.2,3.1c-0.1,0.1-0.3,0.1-0.4,0.1
		c-1,0.2-2.1,0-3.1,0.1c-0.6,0-0.7-0.2-0.9-0.2h0h0c-0.2,0-0.2,0-0.5-0.1c-0.2,0-0.7-0.8-1.4-0.2c-0.2,0.2-0.3,0.4-0.3,0.5
		c0.1,1.7-2,0.4-2.2,0.3c-0.2-0.3-0.6-0.5-0.9-0.6c-0.4-0.1-0.9-0.3-1.2-0.4c-0.2-0.1-0.5-0.2-0.6-0.2c0,0-0.1-0.2,0.1-0.3
		c0.3-0.3,0.4-0.5,0.3-0.7c-0.3-0.5-0.1-0.4-0.3-0.8c0,0,0,0,0,0c-0.1-0.1-0.2-0.2-0.4-0.2c-4.2,0.3-5.1,0.4-5.9,0.8
		c-0.1,0-0.2,0.1-0.5,0c-0.2-0.1-0.4-0.1-0.6,0c-0.3-0.2-0.6-0.2-0.9,0l-1.4,1.1c-0.1,0.1-0.3,0.2-0.4,0.4c-0.2,0.4-0.2,0.7-0.2,0.8
		c0,0.4-1.2,1.3-1.9,1.2c0,0,0,0,0,0v0c-0.3,0.1-0.6,0.2-2.1,2.4c-0.8,1.2-0.8,1.2-0.7,1.5c0.1,0.2,0.3,0.5,0.1,1.5
		c0,0.1,0,0.1,0,0.2c0,0,0,0.1,0,0.1l-0.6,2c-0.2,0.5-0.1,1.1,0.3,1.6l0,0c0,0,0,0,0,0l0.1,0.2c0,0,0,0.1,0.1,0.1
		c0.1,0.3,0.3,1.9,0.8,2.6c0.1,0.1,0.2,0.2,0.3,0.3l1.5,1.5c0.3,0.3,0.8,0.4,1.1,0.5c1.1,0.2,2.2,0.2,3.2,0.6c0,0,0.1,0,0.2,0
		c1.2,0.1,2.2-0.9,3.4-1c0.3,0,0.8,0.2,1,1c0.1,0.6,1,0.4,1.5,0.3c0.2-0.1,0.4,0,0.6,0c0,0,0,0,0,0c0,0,0,0,0,0
		c0,0.1,0.1,0.2,0.3,0.2c0,0,0,0,0,0c0.1,0,0.1,0,0.2,0.1c0.2,0.4,0.2,0.6,0.2,0.8c0,0,0,0,0,0c0,0,0,0,0,0l0,0.1c0,0,0,0,0,0
		c0,0,0,0.1,0,0.1c-0.1,0.9,0,1.3-0.5,1.7c0,0-0.1,0.1-0.1,0.1c0.4,0.9,0.4,0.9,1.4,1.4c0.1,0.2,1,1.6,1.1,2.3
		c0.1,1,0.1,0.8,0.2,0.8c0.4,0.7,0.1,1-0.2,1.2c-0.1,0-0.1,0.1-0.1,0.1c0,0.1-0.1,0.2-0.1,0.2c0,0.1-0.6,1.5-0.6,1.8v0
		c0,0.3,0.5,0.5,0.6,0.8l1,1.5c0,0,0,0.1,0.1,0.1c0.4,0.5-0.2,1.1,0.1,1.6c0.1,0.1,0.4,0.7,0.5,0.8c0.2,0.1,1.1,1.4,0.8,1.6
		c0,0,0,0.1,0,0.1c0.1,0.2,1.1,0.6,1.5,0.4c0.6-0.3,1.8-0.4,2.3-0.4c0.7,0,4-2.4,3.8-3.2c0,0,0,0,0,0v0c0,0,0,0,0,0
		c0.4-0.5,1.5-1,1.5-1.1c0,0,0,0,0,0c0,0,0,0,0.1-0.2c0.1-0.2,0.1-0.4,0.1-0.7c0-0.6,0.3-1.1,0.8-1.5c0.4-0.3,1-0.7,1.8-1.3
		c0.5-0.4,0.8-0.7,0.8-2.3c0-1.5-0.3-2.7-0.4-3c-0.1-0.4-0.1-0.4,0.1-0.7c0.4-0.8,1-1.5,1.4-2.3c0.7-1.3,1.5-2,1.9-2.4
		c0,0,0,0,0.1-0.1c0.8-0.9,1.3-2.2,1.5-3.4c0.1-0.3,0.2-0.5,0.2-0.7c0.1-0.2,0.1-0.3,0.2-1.3c0-0.2-0.1-0.3-0.1-0.5
		c0-0.6-0.2-0.1-0.4,0c-0.5,0.2-0.2,0.1-0.4,0.3c-0.1,0.1-0.9,0.3-1,0.4c-0.1,0.1-0.2,0.2-0.4,0.2c-0.9,0.1-1.1,0.1-1.3,0
		c-0.2-0.1-0.3-0.3-0.3-0.5c0-0.2-0.2-0.4-0.3-0.6c-0.9-0.8-2.7-1.4-3.1-3.7c-0.1-0.3-2.6-4-3.1-4.7c-0.1-0.1-0.1-0.2-0.1-0.3
		c0,0,0,0,0,0s0,0,0,0.1c0,0.1,0.4,0.6,0.7,0.8c0.1,0.1,0.2,0.1,0.2,0c0.1-0.1,0-0.2,0-0.5c0-0.1,0.1-0.1,0.2,0
		c0,0.2,0.1,0.4,0.3,0.5c0.3,0.3,0.7,0.9,1,1.3c0.2,0.3,0.4,0.5,0.7,0.6c0.4,0.2,0.5,0.6,0.8,1.4c0.3,1,1.5,1.2,1.9,2.1
		c0.4,0.8,0.5,1.6,0.9,2.3c0,0,0,0,0,0c0.1,0.1,0.2,0.1,0.3,0.1c0.7-0.2,1.5-1,1.7-1.2c0.4-0.3,0.7-0.6,1-0.8c0.3-0.3,0.5-0.6,0.6-1
		c0.1-0.3,0.6-0.6,0.7-0.6c0.4,0,0.2-0.5,0.4-0.7c0.2-0.2,0.2-0.5,0.4-0.7c0.1-0.1,0.1-0.1,0.2-0.2c0,0,0,0,0,0
		c0-0.3-0.1-0.5-0.1-0.7c0-0.1,0.1-0.1,0.1-0.1c0,0,0,0,0,0c0,0,0,0,0,0c0.1-0.8,0.4-1.5-0.3-1.8c-0.3-0.1-0.6,0.1-0.9-0.1
		c0,0,0,0,0,0c-0.1-0.1-0.3-0.2-0.5-0.1c-0.2,0-0.3,0.2-0.4,0.3c0,0,0,0,0,0c-0.1,0.1-0.2,0.2-0.4,0.3c-0.3,0-0.2,0.1-0.4,0.2l0,0
		c-0.4-0.2-0.7-0.2-2.2-2.5c-0.4-0.7,0.2-1,0.4-0.8c0,0,0,0,0,0l0,0c0,0,0,0,0,0c0,0,0,0,0.1,0.1s0.9,0.9,1.5,1.3
		c0.2,0.1,0.8,0.3,1,0.1c0.4-0.8,0.7-0.2,0.8-0.1c0.3,0.7,1.2,0.1,1.4,0.1c0.4,0,0.4-0.1,1.6-0.8c0.5-0.3,1.1-0.3,1.6-0.1
		C463.8-156.5,464.2-156.1,464.4-155.6z"/>
</g>
<polygon fill="none" stroke="#FFFFFF" stroke-width="3" stroke-linecap="round" stroke-linejoin="round" points="438.8,-161.4 
	438.8,-162.7 438.8,-163 438.8,-163 438.8,-162.9 438.8,-162.8 438.8,-162.5 438.8,-162.6 438.8,-162.3 438.8,-162.7 438.8,-162.5 
	438.8,-162.7 438.8,-161.7 438.8,-161.5 438.8,-161.5 438.8,-161.6 438.8,-160.6 438.8,-160.4 438.8,-159.8 438.8,-159.8 
	438.8,-160.6 "/>
<g>
	<defs>
		<path id="SVGID_5_" d="M0,35c0,19.3,15.7,35,35,35s35-15.7,35-35S54.3,0,35,0S0,15.7,0,35"/>
	</defs>
	<clipPath id="SVGID_6_">
		<use xlink:href="#SVGID_5_"  overflow="visible"/>
	</clipPath>
	
		<line clip-path="url(#SVGID_6_)" fill="none" stroke="#FFFFFF" stroke-width="3" stroke-miterlimit="10" x1="47" y1="26.5" x2="67" y2="26.5"/>
	
		<line clip-path="url(#SVGID_6_)" fill="none" stroke="#FFFFFF" stroke-width="3" stroke-miterlimit="10" x1="49" y1="31.5" x2="69" y2="31.5"/>
	
		<line clip-path="url(#SVGID_6_)" fill="none" stroke="#FFFFFF" stroke-width="3" stroke-miterlimit="10" x1="51" y1="36.5" x2="71" y2="36.5"/>
	
		<line clip-path="url(#SVGID_6_)" fill="none" stroke="#FFFFFF" stroke-width="3" stroke-miterlimit="10" x1="4" y1="26.5" x2="24" y2="26.5"/>
	
		<line clip-path="url(#SVGID_6_)" fill="none" stroke="#FFFFFF" stroke-width="3" stroke-miterlimit="10" x1="2" y1="31.5" x2="22" y2="31.5"/>
	
		<line clip-path="url(#SVGID_6_)" fill="none" stroke="#FFFFFF" stroke-width="3" stroke-miterlimit="10" x1="0" y1="36.5" x2="20" y2="36.5"/>
</g>
<g>
	<defs>
		<rect id="SVGID_7_" x="-400" y="-180" width="870" height="250"/>
	</defs>
	<clipPath id="SVGID_8_">
		<use xlink:href="#SVGID_7_"  overflow="visible"/>
	</clipPath>
	<path clip-path="url(#SVGID_8_)" fill="none" stroke="#FFFFFF" stroke-width="3" d="M35,68.5c18.5,0,33.5-15,33.5-33.5
		S53.5,1.5,35,1.5C16.5,1.5,1.5,16.5,1.5,35S16.5,68.5,35,68.5z"/>
	<path clip-path="url(#SVGID_8_)" fill="none" stroke="#FFFFFF" stroke-width="3" stroke-miterlimit="10" d="M30.4,37.1
		c-5.8-10.7-1.7-16.8,4.6-16.8c6.1,0,10.4,5.9,4.6,16.8c-1.9,3.6,2,4.5,6.3,5.4c4.2,1,3.9,3.2,3.9,7.3H20.3c0-4-0.3-6.3,3.9-7.3
		C28.3,41.5,32.4,40.7,30.4,37.1z"/>
	<path clip-path="url(#SVGID_8_)" fill="none" stroke="#FFFFFF" stroke-width="3" d="M-365,68.5c18.5,0,33.5-15,33.5-33.5
		s-15-33.5-33.5-33.5s-33.5,15-33.5,33.5S-383.5,68.5-365,68.5z"/>
	<path clip-path="url(#SVGID_8_)" fill="none" stroke="#FFFFFF" stroke-width="3" stroke-miterlimit="10" d="M-365,19.4
		c-6.9,0-12.5,5.6-12.5,12.5c0,6,4.6,10.5,10.3,16c0.7,0.7,1.4,1.4,2.2,2.1c0.7-0.7,1.5-1.4,2.2-2.1c5.8-5.6,10.3-10,10.3-16
		C-352.5,25-358.1,19.4-365,19.4z"/>
	<path clip-path="url(#SVGID_8_)" fill="none" stroke="#FFFFFF" stroke-width="3" stroke-miterlimit="10" d="M-365,37.4
		c3,0,5.5-2.5,5.5-5.5c0-3-2.5-5.5-5.5-5.5c-3,0-5.5,2.5-5.5,5.5C-370.5,34.9-368,37.4-365,37.4z"/>
	<path clip-path="url(#SVGID_8_)" fill="none" stroke="#FFFFFF" stroke-width="3" d="M35-111.5c18.5,0,33.5-15,33.5-33.5
		s-15-33.5-33.5-33.5c-18.5,0-33.5,15-33.5,33.5S16.5-111.5,35-111.5z"/>
	<path clip-path="url(#SVGID_8_)" fill="none" stroke="#FFFFFF" stroke-width="3" stroke-miterlimit="10" d="M35-128.2
		c9.2,0,16.7-7.5,16.7-16.7c0-9.2-7.5-16.7-16.7-16.7c-9.2,0-16.7,7.5-16.7,16.7C18.3-135.7,25.8-128.2,35-128.2z"/>
	<path clip-path="url(#SVGID_8_)" fill="none" stroke="#FFFFFF" stroke-width="3" stroke-miterlimit="10" d="M54.4-159.4
		c-6.5,6.4-12.9,12.8-19.4,19.1c-2.3-2.2-4.6-4.4-6.9-6.6"/>
	<path clip-path="url(#SVGID_8_)" fill="none" stroke="#FFFFFF" stroke-width="3" d="M435,68.5c18.5,0,33.5-15,33.5-33.5
		S453.5,1.5,435,1.5c-18.5,0-33.5,15-33.5,33.5S416.5,68.5,435,68.5z"/>
	<path clip-path="url(#SVGID_8_)" fill="none" stroke="#FFFFFF" stroke-width="3" d="M434.2,50c-11.3-6.7-14.7-14.8-14-20.1
		c0.4-3.6,2.7-6.4,6.1-7.4c3.4-0.7,6.4,0.4,8.7,3.1c2.4-2.8,5.4-3.9,8.6-3.2c3.5,1.1,5.8,3.8,6.2,7.4c0.6,5.3-2.7,13.4-14.1,20.1
		l-0.8,0.5L434.2,50z"/>
	<path clip-path="url(#SVGID_8_)" fill="none" stroke="#FFFFFF" stroke-width="3" d="M-365-111.5c18.5,0,33.5-15,33.5-33.5
		s-15-33.5-33.5-33.5s-33.5,15-33.5,33.5S-383.5-111.5-365-111.5z"/>
	<path clip-path="url(#SVGID_8_)" fill="none" stroke="#FFFFFF" stroke-width="3" stroke-miterlimit="10" d="M-365-128.3
		c9.2,0,16.7-7.5,16.7-16.7s-7.5-16.7-16.7-16.7s-16.7,7.5-16.7,16.7S-374.2-128.3-365-128.3z"/>
</g>
<polyline fill="none" stroke="#FFFFFF" stroke-width="3" stroke-miterlimit="10" points="-355.9,-144.2 -365.8,-144.2 
	-365.8,-154.1 "/>
</svg>
