<?xml version="1.0" encoding="utf-8"?>
<!-- Generator: Adobe Illustrator 17.0.0, SVG Export Plug-In . SVG Version: 6.00 Build 0)  -->
<!DOCTYPE svg PUBLIC "-//W3C//DTD SVG 1.1//EN" "http://www.w3.org/Graphics/SVG/1.1/DTD/svg11.dtd">
<svg version="1.1" id="Слой_1" xmlns="http://www.w3.org/2000/svg" xmlns:xlink="http://www.w3.org/1999/xlink" x="0px" y="0px"
	 width="130px" height="61.524px" viewBox="0 0 130 61.524" enable-background="new 0 0 130 61.524" xml:space="preserve">
<g>
	<defs>
		<rect id="SVGID_1_" y="0" width="130" height="61.524"/>
	</defs>
	<clipPath id="SVGID_2_">
		<use xlink:href="#SVGID_1_"  overflow="visible"/>
	</clipPath>
	<path clip-path="url(#SVGID_2_)" fill="#FFFFFF" d="M49.141,25.027c0-0.714-0.173-1.274-0.514-1.676
		c-0.345-0.407-0.82-0.608-1.43-0.608c-0.585,0-0.985,0.106-1.191,0.317c-0.063,0.063-0.097,0.428-0.097,1.105v2.569
		c0,0.349,0.013,0.582,0.038,0.698c0.026,0.111,0.084,0.185,0.185,0.211c0.097,0.027,0.303,0.043,0.611,0.043
		C48.341,27.686,49.141,26.798,49.141,25.027 M49.158,34.214c0.395-0.523,0.593-1.226,0.593-2.114c0-0.64-0.105-1.158-0.32-1.554
		c-0.21-0.402-0.559-0.783-1.043-1.142c-0.282-0.207-0.547-0.333-0.8-0.381c-0.248-0.047-0.61-0.069-1.073-0.069
		c-0.265,0-0.429,0.074-0.5,0.223c-0.072,0.147-0.106,0.401-0.106,0.761v2.859c0,0.566,0.026,0.989,0.072,1.269
		c0.046,0.281,0.177,0.508,0.387,0.672c0.211,0.169,0.543,0.253,1.006,0.253C48.169,34.991,48.762,34.732,49.158,34.214
		 M66.003,35.152c0.004,0.01,0.012,0.017,0.016,0.027c0.013-0.01,0.025-0.017,0.038-0.027H66.003z M61.258,32.539
		c0.164-0.386,0.248-0.862,0.248-1.423v-1.527c0-0.888-0.092-1.333-0.277-1.333c-0.11,0-0.716,0.413-1.814,1.243
		c-0.896,0.703-1.342,1.501-1.342,2.405c0,0.513,0.126,0.946,0.374,1.306c0.253,0.359,0.585,0.539,0.994,0.539
		c0.323,0,0.668-0.116,1.03-0.349C60.833,33.168,61.094,32.882,61.258,32.539 M89.536,32.539c0.164-0.386,0.248-0.862,0.248-1.423
		v-1.527c0-0.888-0.092-1.333-0.278-1.333c-0.109,0-0.715,0.413-1.813,1.243c-0.896,0.703-1.342,1.501-1.342,2.405
		c0,0.513,0.126,0.946,0.374,1.306c0.253,0.359,0.585,0.539,0.993,0.539c0.324,0,0.669-0.116,1.031-0.349
		C89.111,33.168,89.372,32.882,89.536,32.539 M106.374,32.068c0.219-0.878,0.328-1.766,0.328-2.664c0-0.889-0.105-1.787-0.319-2.702
		c-0.215-0.914-0.556-1.686-1.027-2.315c-0.471-0.629-1.065-0.946-1.784-0.946c-0.686,0-1.233,0.328-1.637,0.983
		c-0.122,0.164-0.181,0.492-0.181,0.983c0,0.116,0.004,0.27,0.013,0.476c0.008,0.201,0.013,0.338,0.013,0.407v5.271
		c0,2.389,0.572,3.584,1.72,3.584c0.724,0,1.33-0.291,1.818-0.878C105.802,33.681,106.151,32.946,106.374,32.068 M110.737,28.389
		c0,1.459-0.278,2.796-0.829,4.023c-0.551,1.226-1.308,2.188-2.272,2.891c-0.963,0.698-2.023,1.047-3.185,1.047
		c-0.656,0-1.363-0.137-2.116-0.407c-0.025-0.005-0.08-0.026-0.168-0.058c-0.084-0.032-0.156-0.042-0.211-0.042
		c-0.118,0-0.176,0.338-0.176,1.009v3.69c0,0.228,0.084,0.492,0.256,0.793c0.168,0.301,0.547,0.502,1.128,0.603
		c0.543,0.1,0.816,0.343,0.816,0.724c0,0.365-0.194,0.545-0.585,0.545c-0.403,0-0.963-0.011-1.683-0.037
		c-0.719-0.022-1.334-0.032-1.851-0.032c-0.539,0-1.182,0.01-1.919,0.032c-0.736,0.026-1.308,0.037-1.716,0.037
		c-0.4,0-0.602-0.18-0.602-0.545c0-0.391,0.223-0.634,0.677-0.724c0.649-0.101,1.069-0.302,1.258-0.603
		c0.19-0.301,0.282-0.565,0.282-0.793V27.12c0-0.846-0.054-1.422-0.168-1.734c-0.114-0.306-0.395-0.481-0.841-0.518
		c-0.278-0.026-0.472-0.069-0.585-0.122c-0.118-0.053-0.173-0.195-0.173-0.423c0-0.169,0.063-0.306,0.19-0.407
		c0.126-0.1,0.273-0.174,0.441-0.221c0.173-0.053,0.324-0.096,0.459-0.133c1.876-0.65,3.08-1.369,3.606-2.146
		c0.261-0.386,0.484-0.576,0.66-0.576c0.232,0,0.35,0.38,0.35,1.136v1.084c0.067,0,0.219-0.106,0.454-0.317l0.555-0.476
		c0.488-0.407,0.896-0.677,1.225-0.825c0.324-0.148,0.749-0.222,1.27-0.222c1.027,0,1.957,0.328,2.79,0.978
		c0.829,0.651,1.481,1.523,1.956,2.622C110.502,25.92,110.737,27.109,110.737,28.389 M95.565,33.4c0,0.365-0.219,0.772-0.652,1.211
		c-0.926,0.967-1.851,1.454-2.781,1.454c-0.484,0-0.867-0.117-1.144-0.355c-0.278-0.232-0.518-0.623-0.724-1.173
		c0,0-0.025-0.069-0.072-0.212c-0.05-0.142-0.105-0.264-0.16-0.364c-0.058-0.101-0.121-0.148-0.193-0.148
		c-0.042,0-0.294,0.237-0.766,0.718c-0.471,0.482-1.005,0.904-1.603,1.269c-0.597,0.365-1.262,0.55-1.999,0.55
		c-0.753,0-1.375-0.291-1.876-0.867c-0.5-0.576-0.749-1.327-0.749-2.247c0-1.226,0.455-2.251,1.363-3.071
		c0.329-0.307,0.783-0.629,1.368-0.968c0.58-0.338,1.094-0.586,1.531-0.745c0.909-0.328,1.709-0.809,2.398-1.459
		c0.186-0.201,0.278-0.306,0.278-0.317v-1.052v-0.788c0-0.75-0.071-1.353-0.218-1.818c-0.148-0.46-0.451-0.693-0.918-0.693
		c-0.749,0-1.355,0.666-1.817,1.998c-0.143,0.439-0.282,0.767-0.417,0.989c-0.13,0.217-0.353,0.407-0.665,0.566
		c-0.294,0.19-0.635,0.349-1.031,0.491c-0.395,0.138-0.74,0.207-1.039,0.207c-0.521,0-0.782-0.244-0.782-0.725
		c0-0.454,0.189-0.983,0.576-1.58c0.383-0.592,0.762-1.052,1.14-1.375c1.271-1.115,2.845-1.676,4.721-1.676
		c1.367,0,2.445,0.296,3.227,0.888c0.362,0.281,0.597,0.635,0.703,1.058c0.105,0.423,0.156,0.957,0.156,1.607v6.915
		c0,0.671,0.037,1.168,0.109,1.49c0.076,0.317,0.235,0.476,0.475,0.476c0.16,0,0.37-0.106,0.631-0.317
		c0.013-0.011,0.063-0.053,0.16-0.132c0.093-0.074,0.177-0.138,0.244-0.18c0.072-0.043,0.135-0.064,0.198-0.064
		C95.456,32.961,95.565,33.104,95.565,33.4 M79.459,24.746v8.274c0,0.528,0.025,0.898,0.076,1.115
		c0.046,0.217,0.16,0.376,0.333,0.47c0.176,0.101,0.483,0.186,0.929,0.249c0.156,0,0.312,0.069,0.471,0.201
		c0.16,0.137,0.236,0.301,0.236,0.497c0,0.18-0.05,0.322-0.152,0.438c-0.096,0.112-0.222,0.17-0.378,0.17
		c-0.395,0-0.976-0.016-1.742-0.048c-0.766-0.032-1.346-0.047-1.742-0.047c-0.362,0-0.904,0.015-1.628,0.047
		c-0.724,0.032-1.267,0.048-1.628,0.048c-0.354,0-0.531-0.201-0.531-0.608c0-0.185,0.068-0.349,0.194-0.487
		c0.126-0.137,0.265-0.211,0.412-0.211c0.476-0.069,0.808-0.153,0.993-0.243c0.186-0.09,0.303-0.238,0.35-0.45
		c0.05-0.216,0.075-0.592,0.075-1.141v-9.003c0-0.381-0.021-0.64-0.059-0.772s-0.143-0.217-0.307-0.254
		c-0.168-0.037-0.484-0.058-0.946-0.058H73.38c-0.497,0-0.842,0.032-1.035,0.101c-0.19,0.068-0.312,0.201-0.358,0.401
		c-0.051,0.201-0.076,0.566-0.076,1.084v4.404c0,1.247-0.067,2.394-0.197,3.441c-0.131,1.052-0.484,2.009-1.052,2.876
		c-0.572,0.862-1.444,1.295-2.617,1.295c-0.661,0-1.208-0.243-1.641-0.729c-0.158-0.18-0.284-0.391-0.385-0.627
		c-0.721,0.587-1.441,0.886-2.165,0.886c-0.484,0-0.867-0.117-1.144-0.355c-0.278-0.232-0.518-0.623-0.724-1.173
		c0,0-0.025-0.069-0.072-0.212c-0.05-0.142-0.105-0.264-0.16-0.364c-0.058-0.101-0.122-0.148-0.193-0.148
		c-0.042,0-0.295,0.237-0.766,0.718c-0.471,0.482-1.005,0.904-1.603,1.269c-0.597,0.365-1.262,0.55-1.998,0.55
		c-0.753,0-1.376-0.291-1.877-0.867s-0.749-1.327-0.749-2.247c0-1.226,0.455-2.251,1.364-3.071c0.328-0.307,0.782-0.629,1.367-0.968
		c0.581-0.338,1.094-0.586,1.531-0.745c0.909-0.328,1.709-0.809,2.399-1.459c0.185-0.201,0.277-0.306,0.277-0.317v-1.052v-0.788
		c0-0.75-0.071-1.353-0.219-1.818c-0.147-0.46-0.45-0.693-0.917-0.693c-0.749,0-1.354,0.666-1.817,1.998
		c-0.143,0.439-0.282,0.767-0.417,0.989c-0.13,0.217-0.353,0.407-0.665,0.566c-0.294,0.19-0.635,0.349-1.03,0.491
		c-0.396,0.138-0.741,0.207-1.04,0.207c-0.521,0-0.782-0.244-0.782-0.725c0-0.454,0.189-0.983,0.576-1.58
		c0.383-0.592,0.762-1.052,1.14-1.375c1.271-1.115,2.845-1.676,4.721-1.676c1.368,0,2.445,0.296,3.227,0.888
		c0.362,0.281,0.598,0.635,0.703,1.058c0.105,0.423,0.155,0.957,0.155,1.607v6.915c0,0.671,0.014,1.18,0.085,1.502
		c0.057,0.239,0.28,0.548,0.584,0.548c0.216,0-0.098-0.933,0.476-1.612c0.357-0.417,0.787-0.629,1.287-0.629
		c0.451,0,0.779,0.159,0.981,0.471c0.202,0.312,0.404,0.819,0.61,1.527c0.012,0.037,0.033,0.132,0.067,0.27
		c0.034,0.137,0.067,0.249,0.101,0.322c0.038,0.074,0.084,0.133,0.143,0.175c0.059,0.037,0.139,0.058,0.244,0.058
		c0.152,0,0.311-0.19,0.476-0.571c0.164-0.38,0.302-0.983,0.416-1.797c0.114-0.814,0.168-1.824,0.168-3.024v-4.182
		c0-0.534-0.025-0.909-0.079-1.136c-0.055-0.222-0.169-0.386-0.341-0.492c-0.173-0.1-0.467-0.195-0.892-0.28
		c-0.16,0-0.32-0.058-0.476-0.174c-0.155-0.122-0.231-0.275-0.231-0.46c0-0.18,0.046-0.333,0.147-0.466
		c0.101-0.132,0.227-0.2,0.379-0.2c0.4,0,0.98,0.015,1.746,0.047c0.761,0.032,1.342,0.048,1.737,0.048h4.948
		c0.362,0,0.901-0.016,1.62-0.048c0.72-0.032,1.254-0.047,1.607-0.047c0.165,0,0.299,0.068,0.404,0.2
		c0.106,0.133,0.156,0.286,0.156,0.466c0,0.185-0.067,0.338-0.202,0.46c-0.135,0.116-0.278,0.174-0.433,0.174
		c-0.501,0.09-0.833,0.174-1.001,0.259c-0.169,0.09-0.278,0.238-0.333,0.455C79.484,23.769,79.459,24.165,79.459,24.746
		 M48.813,28.283c1.439,0.053,2.583,0.349,3.437,0.894c0.854,0.544,1.283,1.485,1.283,2.828c0,1.475-0.597,2.595-1.792,3.362
		c-0.534,0.333-1.056,0.544-1.569,0.644c-0.51,0.096-1.158,0.149-1.936,0.149c-0.728,0-1.435-0.016-2.116-0.048
		c-0.682-0.032-1.372-0.047-2.074-0.047c-0.152,0-0.716,0.01-1.692,0.031c-0.972,0.022-1.535,0.032-1.691,0.032
		c-0.139,0-0.261-0.053-0.37-0.159c-0.106-0.105-0.16-0.243-0.16-0.412c0-0.417,0.202-0.65,0.601-0.698
		c0.488-0.058,0.829-0.164,1.023-0.328c0.189-0.163,0.307-0.428,0.353-0.787c0.047-0.36,0.068-1.004,0.068-1.93v-5.931
		c0-0.936-0.026-1.586-0.076-1.951c-0.047-0.365-0.164-0.618-0.353-0.761c-0.186-0.143-0.527-0.254-1.015-0.333
		c-0.378-0.069-0.576-0.27-0.601-0.608c0-0.439,0.26-0.661,0.782-0.661c1.073,0.043,2.142,0.064,3.202,0.064
		c0.412,0,0.98-0.021,1.7-0.064c0.719-0.042,1.211-0.063,1.477-0.063c1.67,0,3.033,0.259,4.081,0.772
		c1.047,0.518,1.574,1.475,1.574,2.87C52.949,27.014,51.568,28.056,48.813,28.283 M26.626,38.62
		c-1.304,0.219-2.834,0.064-4.08-0.492c-1.519-0.536-2.602-1.886-2.602-3.461c0-2.042,1.819-3.708,4.05-3.708
		c2.231,0,4.05,1.666,4.05,3.708c0,0.869-0.33,1.67-0.881,2.303c3.86-1.523,6.143-7.519,6.535-11.19
		c0.064-0.449,0.106-0.896,0.131-1.339c-3.225,6.189-5.371,3.004-7.807,1.918c-1.655-0.738-3.521,0.975-3.181,0.424
		c3.985-6.453,4.754-1.992,7.908-1.911c1.053,0.026,2.474-0.799,3.105-1.086c0.119-7.648-5.252-13.456-8.483-2.411
		c-1.885,0.005-4.618,0-6.09,0.018c1.925-5.944,9.791-11.579,16.256-5.409C41.383,21.348,39.726,36.421,26.626,38.62 M51.062,46.362
		c16.597,2.88,23.869,4.112,39.568,0.427C86.224,60.533,62.887,53.979,51.062,46.362 M129.485,0.023
		c-8.316,10.507-23.909,10.212-34.304,10.03c2.128-2.316,4.078-6.271,4.158-9.075c-0.365,1.104-1.88,1.846-3.471,2.41
		C84.733,7.329,48.007-0.474,40.232,0.023C9.946,1.137,0.066,30.585,0,55.661c5.112-5.39,12.452-8.737,15.138-9.311
		c29.103-5.522,57.945,26.293,88.927,10.952C122.693,48.077,132.414,24.244,129.485,0.023"/>
</g>
</svg>
