<?xml version="1.0" encoding="utf-8"?>
<!-- Generator: Adobe Illustrator 18.1.1, SVG Export Plug-In . SVG Version: 6.00 Build 0)  -->
<svg version="1.1" id="Layer_1" xmlns="http://www.w3.org/2000/svg" xmlns:xlink="http://www.w3.org/1999/xlink" x="0px" y="0px"
	 viewBox="0 0 130 61.5" enable-background="new 0 0 130 61.5" xml:space="preserve">
<g>
	<defs>
		<rect id="SVGID_1_" y="0" width="130" height="61.5"/>
	</defs>
	<clipPath id="SVGID_2_">
		<use xlink:href="#SVGID_1_"  overflow="visible"/>
	</clipPath>
	<path clip-path="url(#SVGID_2_)" fill="#069139" d="M0,55.7C0.1,30.6,9.9,1.1,40.2,0C48-0.5,84.7,7.3,95.9,3.4
		C97.5,2.8,99,2.1,99.3,1c-0.1,2.8-2,6.8-4.2,9.1c10.4,0.2,26,0.5,34.3-10c2.9,24.2-6.8,48.1-25.4,57.3c-31,15.3-59.8-16.5-88.9-11
		C12.5,46.9,5.1,50.3,0,55.7"/>
	<path clip-path="url(#SVGID_2_)" fill="#FFFFFF" d="M51.1,46.4c16.6,2.9,23.9,4.1,39.6,0.4C86.2,60.5,62.9,54,51.1,46.4"/>
	<path clip-path="url(#SVGID_2_)" fill="#FFFFFF" d="M27.2,37c3.9-1.5,6.1-7.5,6.5-11.2c0.1-0.4,0.1-0.9,0.1-1.3
		c-3.2,6.2-5.4,3-7.8,1.9c-1.7-0.7-3.5,1-3.2,0.4c4-6.5,4.8-2,7.9-1.9c1.1,0,2.5-0.8,3.1-1.1c0.1-7.6-5.3-13.5-8.5-2.4
		c-1.9,0-4.6,0-6.1,0c1.9-5.9,9.8-11.6,16.3-5.4c5.8,5.4,4.2,20.4-8.9,22.6c-1.3,0.2-2.8,0.1-4.1-0.5c-1.5-0.5-2.6-1.9-2.6-3.5
		c0-2,1.8-3.7,4-3.7c2.2,0,4,1.7,4,3.7C28,35.5,27.7,36.3,27.2,37"/>
	<path clip-path="url(#SVGID_2_)" fill="#FFFFFF" d="M101.8,31.6c0,2.4,0.6,3.6,1.7,3.6c0.7,0,1.3-0.3,1.8-0.9
		c0.5-0.6,0.8-1.3,1.1-2.2c0.2-0.9,0.3-1.8,0.3-2.7c0-0.9-0.1-1.8-0.3-2.7c-0.2-0.9-0.6-1.7-1-2.3c-0.5-0.6-1.1-0.9-1.8-0.9
		c-0.7,0-1.2,0.3-1.6,1c-0.1,0.2-0.2,0.5-0.2,1c0,0.1,0,0.3,0,0.5c0,0.2,0,0.3,0,0.4V31.6z M101.8,23.1c0.1,0,0.2-0.1,0.5-0.3
		l0.6-0.5c0.5-0.4,0.9-0.7,1.2-0.8c0.3-0.1,0.7-0.2,1.3-0.2c1,0,2,0.3,2.8,1c0.8,0.7,1.5,1.5,2,2.6c0.5,1.1,0.7,2.3,0.7,3.6
		c0,1.5-0.3,2.8-0.8,4c-0.6,1.2-1.3,2.2-2.3,2.9c-1,0.7-2,1-3.2,1c-0.7,0-1.4-0.1-2.1-0.4c0,0-0.1,0-0.2-0.1c-0.1,0-0.2,0-0.2,0
		c-0.1,0-0.2,0.3-0.2,1v3.7c0,0.2,0.1,0.5,0.3,0.8c0.2,0.3,0.5,0.5,1.1,0.6c0.5,0.1,0.8,0.3,0.8,0.7c0,0.4-0.2,0.5-0.6,0.5
		c-0.4,0-1,0-1.7,0c-0.7,0-1.3,0-1.9,0c-0.5,0-1.2,0-1.9,0c-0.7,0-1.3,0-1.7,0c-0.4,0-0.6-0.2-0.6-0.5c0-0.4,0.2-0.6,0.7-0.7
		c0.6-0.1,1.1-0.3,1.3-0.6c0.2-0.3,0.3-0.6,0.3-0.8V27.1c0-0.8-0.1-1.4-0.2-1.7c-0.1-0.3-0.4-0.5-0.8-0.5c-0.3,0-0.5-0.1-0.6-0.1
		c-0.1-0.1-0.2-0.2-0.2-0.4c0-0.2,0.1-0.3,0.2-0.4c0.1-0.1,0.3-0.2,0.4-0.2c0.2-0.1,0.3-0.1,0.5-0.1c1.9-0.6,3.1-1.4,3.6-2.1
		c0.3-0.4,0.5-0.6,0.7-0.6c0.2,0,0.3,0.4,0.3,1.1V23.1z M89.8,29.6c0-0.9-0.1-1.3-0.3-1.3c-0.1,0-0.7,0.4-1.8,1.2
		c-0.9,0.7-1.3,1.5-1.3,2.4c0,0.5,0.1,0.9,0.4,1.3c0.3,0.4,0.6,0.5,1,0.5c0.3,0,0.7-0.1,1-0.3c0.4-0.2,0.6-0.5,0.8-0.9
		c0.2-0.4,0.2-0.9,0.2-1.4V29.6z M93.4,31.7c0,0.7,0,1.2,0.1,1.5c0.1,0.3,0.2,0.5,0.5,0.5c0.2,0,0.4-0.1,0.6-0.3
		c0,0,0.1-0.1,0.2-0.1c0.1-0.1,0.2-0.1,0.2-0.2c0.1,0,0.1-0.1,0.2-0.1c0.2,0,0.3,0.1,0.3,0.4c0,0.4-0.2,0.8-0.7,1.2
		c-0.9,1-1.9,1.5-2.8,1.5c-0.5,0-0.9-0.1-1.1-0.4c-0.3-0.2-0.5-0.6-0.7-1.2c0,0,0-0.1-0.1-0.2c-0.1-0.1-0.1-0.3-0.2-0.4
		c-0.1-0.1-0.1-0.1-0.2-0.1c0,0-0.3,0.2-0.8,0.7c-0.5,0.5-1,0.9-1.6,1.3c-0.6,0.4-1.3,0.5-2,0.5c-0.8,0-1.4-0.3-1.9-0.9
		c-0.5-0.6-0.7-1.3-0.7-2.2c0-1.2,0.5-2.3,1.4-3.1c0.3-0.3,0.8-0.6,1.4-1c0.6-0.3,1.1-0.6,1.5-0.7c0.9-0.3,1.7-0.8,2.4-1.5
		c0.2-0.2,0.3-0.3,0.3-0.3v-1.1v-0.8c0-0.8-0.1-1.4-0.2-1.8c-0.1-0.5-0.4-0.7-0.9-0.7c-0.7,0-1.4,0.7-1.8,2c-0.1,0.4-0.3,0.8-0.4,1
		c-0.1,0.2-0.4,0.4-0.7,0.6c-0.3,0.2-0.6,0.3-1,0.5c-0.4,0.1-0.7,0.2-1,0.2c-0.5,0-0.8-0.2-0.8-0.7c0-0.5,0.2-1,0.6-1.6
		c0.4-0.6,0.8-1.1,1.1-1.4c1.3-1.1,2.8-1.7,4.7-1.7c1.4,0,2.4,0.3,3.2,0.9c0.4,0.3,0.6,0.6,0.7,1.1c0.1,0.4,0.2,1,0.2,1.6V31.7z
		 M61.5,29.6v1.5c0,0.6-0.1,1-0.2,1.4c-0.2,0.3-0.4,0.6-0.8,0.9c-0.4,0.2-0.7,0.3-1,0.3c-0.4,0-0.7-0.2-1-0.5
		c-0.2-0.4-0.4-0.8-0.4-1.3c0-0.9,0.4-1.7,1.3-2.4c1.1-0.8,1.7-1.2,1.8-1.2C61.4,28.3,61.5,28.7,61.5,29.6 M45.9,32.8
		c0,0.6,0,1,0.1,1.3c0,0.3,0.2,0.5,0.4,0.7c0.2,0.2,0.5,0.3,1,0.3c0.8,0,1.4-0.3,1.8-0.8c0.4-0.5,0.6-1.2,0.6-2.1
		c0-0.6-0.1-1.2-0.3-1.6c-0.2-0.4-0.6-0.8-1-1.1c-0.3-0.2-0.5-0.3-0.8-0.4C47.3,29,47,29,46.5,29c-0.3,0-0.4,0.1-0.5,0.2
		c-0.1,0.1-0.1,0.4-0.1,0.8V32.8z M45.9,26.7c0,0.3,0,0.6,0,0.7c0,0.1,0.1,0.2,0.2,0.2c0.1,0,0.3,0,0.6,0c1.6,0,2.4-0.9,2.4-2.7
		c0-0.7-0.2-1.3-0.5-1.7c-0.3-0.4-0.8-0.6-1.4-0.6c-0.6,0-1,0.1-1.2,0.3c-0.1,0.1-0.1,0.4-0.1,1.1V26.7z M66.1,35.2L66.1,35.2
		c0,0.2,0.2,0.5,0.3,0.7c0.4,0.5,1,0.7,1.6,0.7c1.2,0,2-0.4,2.6-1.3c0.6-0.9,0.9-1.8,1.1-2.9c0.1-1,0.2-2.2,0.2-3.4v-4.4
		c0-0.5,0-0.9,0.1-1.1c0-0.2,0.2-0.3,0.4-0.4c0.2-0.1,0.5-0.1,1-0.1h1c0.5,0,0.8,0,0.9,0.1c0.2,0,0.3,0.1,0.3,0.3
		c0,0.1,0.1,0.4,0.1,0.8v9c0,0.5,0,0.9-0.1,1.1c0,0.2-0.2,0.4-0.3,0.5c-0.2,0.1-0.5,0.2-1,0.2c-0.1,0-0.3,0.1-0.4,0.2
		c-0.1,0.1-0.2,0.3-0.2,0.5c0,0.4,0.2,0.6,0.5,0.6c0.4,0,0.9,0,1.6,0c0.7,0,1.3,0,1.6,0c0.4,0,1,0,1.7,0c0.8,0,1.3,0,1.7,0
		c0.2,0,0.3-0.1,0.4-0.2c0.1-0.1,0.2-0.3,0.2-0.4c0-0.2-0.1-0.4-0.2-0.5c-0.2-0.1-0.3-0.2-0.5-0.2c-0.4-0.1-0.8-0.1-0.9-0.2
		c-0.2-0.1-0.3-0.3-0.3-0.5c-0.1-0.2-0.1-0.6-0.1-1.1v-8.3c0-0.6,0-1,0.1-1.2c0.1-0.2,0.2-0.4,0.3-0.5c0.2-0.1,0.5-0.2,1-0.3
		c0.2,0,0.3-0.1,0.4-0.2c0.1-0.1,0.2-0.3,0.2-0.5c0-0.2-0.1-0.3-0.2-0.5c-0.1-0.1-0.2-0.2-0.4-0.2c-0.4,0-0.9,0-1.6,0
		c-0.7,0-1.3,0-1.6,0h-4.9c-0.4,0-1,0-1.7,0c-0.8,0-1.3,0-1.7,0c-0.2,0-0.3,0.1-0.4,0.2c-0.1,0.1-0.1,0.3-0.1,0.5
		c0,0.2,0.1,0.3,0.2,0.5c0.2,0.1,0.3,0.2,0.5,0.2c0.4,0.1,0.7,0.2,0.9,0.3c0.2,0.1,0.3,0.3,0.3,0.5c0.1,0.2,0.1,0.6,0.1,1.1v4.2
		c0,1.2-0.1,2.2-0.2,3c-0.1,0.8-0.3,1.4-0.4,1.8c-0.2,0.4-0.3,0.6-0.5,0.6c-0.1,0-0.2,0-0.2-0.1c-0.1,0-0.1-0.1-0.1-0.2
		c0-0.1-0.1-0.2-0.1-0.3c0-0.1-0.1-0.2-0.1-0.3c-0.2-0.7-0.4-1.2-0.6-1.5c-0.2-0.3-0.5-0.5-1-0.5c-0.5,0-0.9,0.2-1.3,0.6
		c-0.6,0.7-0.3,1.6-0.5,1.6c-0.3,0-0.5-0.3-0.6-0.5c-0.1-0.3-0.1-0.8-0.1-1.5v-6.9c0-0.7-0.1-1.2-0.2-1.6c-0.1-0.4-0.3-0.8-0.7-1.1
		c-0.8-0.6-1.9-0.9-3.2-0.9c-1.9,0-3.5,0.6-4.7,1.7c-0.4,0.3-0.8,0.8-1.1,1.4c-0.4,0.6-0.6,1.1-0.6,1.6c0,0.5,0.3,0.7,0.8,0.7
		c0.3,0,0.6-0.1,1-0.2c0.4-0.1,0.7-0.3,1-0.5c0.3-0.2,0.5-0.3,0.7-0.6c0.1-0.2,0.3-0.5,0.4-1c0.5-1.3,1.1-2,1.8-2
		c0.5,0,0.8,0.2,0.9,0.7c0.1,0.5,0.2,1.1,0.2,1.8v0.8v1.1c0,0-0.1,0.1-0.3,0.3c-0.7,0.7-1.5,1.1-2.4,1.5c-0.4,0.2-1,0.4-1.5,0.7
		c-0.6,0.3-1,0.7-1.4,1C55,31,54.6,32,54.6,33.2c0,0.9,0.2,1.7,0.7,2.2c0.5,0.6,1.1,0.9,1.9,0.9c0.7,0,1.4-0.2,2-0.5
		c0.6-0.4,1.1-0.8,1.6-1.3c0.5-0.5,0.7-0.7,0.8-0.7c0.1,0,0.1,0,0.2,0.1c0.1,0.1,0.1,0.2,0.2,0.4c0,0.1,0.1,0.2,0.1,0.2
		c0.2,0.5,0.4,0.9,0.7,1.2c0.3,0.2,0.7,0.4,1.1,0.4C64.6,36.1,65.3,35.8,66.1,35.2 M42.2,25.9c0-0.9,0-1.6-0.1-2
		c0-0.4-0.2-0.6-0.4-0.8c-0.2-0.1-0.5-0.3-1-0.3c-0.4-0.1-0.6-0.3-0.6-0.6c0-0.4,0.3-0.7,0.8-0.7c1.1,0,2.1,0.1,3.2,0.1
		c0.4,0,1,0,1.7-0.1c0.7,0,1.2-0.1,1.5-0.1c1.7,0,3,0.3,4.1,0.8c1,0.5,1.6,1.5,1.6,2.9c0,1.9-1.4,2.9-4.1,3.1
		c1.4,0.1,2.6,0.3,3.4,0.9c0.9,0.5,1.3,1.5,1.3,2.8c0,1.5-0.6,2.6-1.8,3.4c-0.5,0.3-1.1,0.5-1.6,0.6c-0.5,0.1-1.2,0.1-1.9,0.1
		c-0.7,0-1.4,0-2.1,0c-0.7,0-1.4,0-2.1,0c-0.2,0-0.7,0-1.7,0c-1,0-1.5,0-1.7,0c-0.1,0-0.3-0.1-0.4-0.2c-0.1-0.1-0.2-0.2-0.2-0.4
		c0-0.4,0.2-0.7,0.6-0.7c0.5-0.1,0.8-0.2,1-0.3c0.2-0.2,0.3-0.4,0.4-0.8c0-0.4,0.1-1,0.1-1.9V25.9z"/>
</g>
</svg>
