<?xml version="1.0" encoding="utf-8"?>
<!-- Generator: Adobe Illustrator 17.0.0, SVG Export Plug-In . SVG Version: 6.00 Build 0)  -->
<!DOCTYPE svg PUBLIC "-//W3C//DTD SVG 1.1//EN" "http://www.w3.org/Graphics/SVG/1.1/DTD/svg11.dtd">
<svg version="1.1" id="Слой_1" xmlns="http://www.w3.org/2000/svg" xmlns:xlink="http://www.w3.org/1999/xlink" x="0px" y="0px"
	 width="59.164px" height="28px" viewBox="0 0 59.164 28" enable-background="new 0 0 59.164 28" xml:space="preserve">
<g>
	<defs>
		<rect id="SVGID_1_" width="59.164" height="28"/>
	</defs>
	<clipPath id="SVGID_2_">
		<use xlink:href="#SVGID_1_"  overflow="visible"/>
	</clipPath>
	<path clip-path="url(#SVGID_2_)" fill="#008F36" d="M0,25.332C0.03,13.92,4.527,0.518,18.31,0.011
		c3.538-0.226,20.253,3.325,25.32,1.531c0.724-0.256,1.414-0.594,1.58-1.096c-0.037,1.275-0.924,3.076-1.892,4.129
		c4.73,0.084,11.827,0.218,15.612-4.564c1.332,11.023-3.091,21.87-11.569,26.068c-14.1,6.982-27.227-7.498-40.472-4.984
		C5.667,21.355,2.327,22.878,0,25.332"/>
	<path clip-path="url(#SVGID_2_)" fill="#FFFFFF" d="M23.239,21.099c7.553,1.311,10.863,1.872,18.007,0.194
		C39.241,27.548,28.62,24.566,23.239,21.099"/>
</g>
</svg>
