<?xml version="1.0" encoding="utf-8"?>
<!-- Generator: Adobe Illustrator 18.1.1, SVG Export Plug-In . SVG Version: 6.00 Build 0)  -->
<svg version="1.1" id="Layer_1" xmlns="http://www.w3.org/2000/svg" xmlns:xlink="http://www.w3.org/1999/xlink" x="0px" y="0px"
	 viewBox="0 0 24 24" enable-background="new 0 0 24 24" xml:space="preserve">
<g>
	<defs>
		<rect id="SVGID_1_" x="-117" width="395" height="24"/>
	</defs>
	<clipPath id="SVGID_2_">
		<use xlink:href="#SVGID_1_"  overflow="visible"/>
	</clipPath>
	<path clip-path="url(#SVGID_2_)" fill="none" stroke="#FFFFFF" d="M-105,23.5c6.3,0,11.5-5.2,11.5-11.5S-98.7,0.5-105,0.5
		s-11.5,5.2-11.5,11.5S-111.3,23.5-105,23.5z"/>
	<path clip-path="url(#SVGID_2_)" fill="#FFFFFF" d="M-109,13.1c0-2.8,3.4-6.2,3.5-6.3c0.1-0.1,0.3-0.2,0.5-0.2s0.3,0.1,0.5,0.2
		c0.1,0.1,3.5,3.5,3.5,6.3c0,2.2-1.8,3.9-4,3.9S-109,15.2-109,13.1"/>
	<path clip-path="url(#SVGID_2_)" fill="#FFFFFF" d="M-106,14c0.6,0,1-0.7,1-1.5s-0.4-1.5-1-1.5s-1,0.7-1,1.5S-106.6,14-106,14"/>
	<path clip-path="url(#SVGID_2_)" fill="none" stroke="#FFFFFF" d="M12,23.5c6.3,0,11.5-5.2,11.5-11.5S18.3,0.5,12,0.5
		C5.7,0.5,0.5,5.7,0.5,12S5.7,23.5,12,23.5z"/>
</g>
<rect x="9.9" y="6.9" transform="matrix(0.7071 0.7071 -0.7071 0.7071 9.8787 -5.8492)" fill="#FFFFFF" width="4.2" height="4.2"/>
<rect x="5.9" y="10.9" transform="matrix(0.7071 0.7071 -0.7071 0.7071 11.5356 -1.8492)" fill="#FFFFFF" width="4.2" height="4.2"/>
<rect x="13.9" y="10.9" transform="matrix(0.7071 0.7071 -0.7071 0.7071 13.8788 -7.5061)" fill="#FFFFFF" width="4.2" height="4.2"/>
<g>
	<defs>
		<rect id="SVGID_3_" x="-117" width="395" height="24"/>
	</defs>
	<clipPath id="SVGID_4_">
		<use xlink:href="#SVGID_3_"  overflow="visible"/>
	</clipPath>
	<path clip-path="url(#SVGID_4_)" fill="none" stroke="#FFFFFF" d="M126,23.5c6.3,0,11.5-5.2,11.5-11.5S132.3,0.5,126,0.5
		c-6.3,0-11.5,5.2-11.5,11.5S119.7,23.5,126,23.5z"/>
	<path clip-path="url(#SVGID_4_)" fill="#FFFFFF" d="M122.6,16.8c-1.1-0.8-1.6-1.8-1.6-2.9c0-3.3,3.3-7.4,9.6-6.2
		c-3.9,1.5-0.6,5.7-2.3,8c-0.9,1.2-2.2,1.7-3.5,1.7c-0.2,0.8,0.7-5.7,0.6-4.7"/>
	<path clip-path="url(#SVGID_4_)" fill="none" stroke="#FFFFFF" d="M266,23.5c6.3,0,11.5-5.2,11.5-11.5S272.3,0.5,266,0.5
		c-6.3,0-11.5,5.2-11.5,11.5S259.7,23.5,266,23.5z"/>
	<path clip-path="url(#SVGID_4_)" fill="#FFFFFF" d="M262.7,7.9c-1,0-1.7,0.8-1.7,1.7s0.8,1.7,1.7,1.7c1,0,1.7-0.8,1.7-1.7
		S263.7,7.9,262.7,7.9"/>
	<path clip-path="url(#SVGID_4_)" fill="#FFFFFF" d="M269.3,7.9c-1,0-1.7,0.8-1.7,1.7s0.8,1.7,1.7,1.7c1,0,1.7-0.8,1.7-1.7
		S270.2,7.9,269.3,7.9"/>
	<path clip-path="url(#SVGID_4_)" fill="#FFFFFF" d="M272,13.9c-0.4,1.4-2.8,4.2-6,4.2c-3.2,0-5.6-2.7-6-4.2H272z"/>
</g>
</svg>
