<?xml version="1.0" encoding="utf-8"?>
<!-- Generator: Adobe Illustrator 18.1.1, SVG Export Plug-In . SVG Version: 6.00 Build 0)  -->
<svg version="1.1" id="Layer_1" xmlns="http://www.w3.org/2000/svg" xmlns:xlink="http://www.w3.org/1999/xlink" x="0px" y="0px"
	 viewBox="0 0 24 24" enable-background="new 0 0 24 24" xml:space="preserve">
<g>
	<defs>
		<rect id="SVGID_1_" x="-231" width="395" height="24"/>
	</defs>
	<clipPath id="SVGID_2_">
		<use xlink:href="#SVGID_1_"  overflow="visible"/>
	</clipPath>
	<path clip-path="url(#SVGID_2_)" fill="none" stroke="#FFFFFF" d="M-219,23.5c6.3,0,11.5-5.2,11.5-11.5S-212.7,0.5-219,0.5
		s-11.5,5.2-11.5,11.5S-225.3,23.5-219,23.5z"/>
	<path clip-path="url(#SVGID_2_)" fill="#FFFFFF" d="M-223,13.1c0-2.8,3.4-6.2,3.5-6.3c0.1-0.1,0.3-0.2,0.5-0.2
		c0.2,0,0.3,0.1,0.5,0.2c0.1,0.1,3.5,3.5,3.5,6.3c0,2.2-1.8,3.9-4,3.9C-221.2,17-223,15.2-223,13.1"/>
	<path clip-path="url(#SVGID_2_)" fill="#FFFFFF" d="M-220,14c0.6,0,1-0.7,1-1.5s-0.4-1.5-1-1.5s-1,0.7-1,1.5S-220.6,14-220,14"/>
	<path clip-path="url(#SVGID_2_)" fill="none" stroke="#FFFFFF" d="M-102,23.5c6.3,0,11.5-5.2,11.5-11.5S-95.7,0.5-102,0.5
		c-6.3,0-11.5,5.2-11.5,11.5S-108.3,23.5-102,23.5z"/>
</g>
<rect x="-104.1" y="6.9" transform="matrix(0.7071 0.7071 -0.7071 0.7071 -23.5111 74.7609)" fill="#FFFFFF" width="4.2" height="4.2"/>
<rect x="-108.1" y="10.9" transform="matrix(0.7071 0.7071 -0.7071 0.7071 -21.8542 78.761)" fill="#FFFFFF" width="4.2" height="4.2"/>
<rect x="-100.1" y="10.9" transform="matrix(0.7071 0.7071 -0.7071 0.7071 -19.5111 73.1041)" fill="#FFFFFF" width="4.2" height="4.2"/>
<g>
	<defs>
		<rect id="SVGID_3_" x="-231" width="395" height="24"/>
	</defs>
	<clipPath id="SVGID_4_">
		<use xlink:href="#SVGID_3_"  overflow="visible"/>
	</clipPath>
	<path clip-path="url(#SVGID_4_)" fill="none" stroke="#FFFFFF" d="M12,23.5c6.3,0,11.5-5.2,11.5-11.5S18.3,0.5,12,0.5
		C5.7,0.5,0.5,5.7,0.5,12S5.7,23.5,12,23.5z"/>
	<path clip-path="url(#SVGID_4_)" fill="#FFFFFF" d="M8.6,16.8C7.5,16,7,15,7,13.9c0-3.3,3.3-7.4,9.6-6.2c-3.9,1.5-0.6,5.7-2.3,8
		c-0.9,1.2-2.2,1.7-3.5,1.7c-0.2,0.8,0.7-5.7,0.6-4.7"/>
	<path clip-path="url(#SVGID_4_)" fill="none" stroke="#FFFFFF" d="M152,23.5c6.3,0,11.5-5.2,11.5-11.5S158.3,0.5,152,0.5
		c-6.3,0-11.5,5.2-11.5,11.5S145.7,23.5,152,23.5z"/>
	<path clip-path="url(#SVGID_4_)" fill="#FFFFFF" d="M148.7,7.9c-1,0-1.7,0.8-1.7,1.7s0.8,1.7,1.7,1.7c1,0,1.7-0.8,1.7-1.7
		S149.7,7.9,148.7,7.9"/>
	<path clip-path="url(#SVGID_4_)" fill="#FFFFFF" d="M155.3,7.9c-1,0-1.7,0.8-1.7,1.7s0.8,1.7,1.7,1.7c1,0,1.7-0.8,1.7-1.7
		S156.2,7.9,155.3,7.9"/>
	<path clip-path="url(#SVGID_4_)" fill="#FFFFFF" d="M158,13.9c-0.4,1.4-2.8,4.2-6,4.2c-3.2,0-5.6-2.7-6-4.2H158z"/>
</g>
</svg>
