<?xml version="1.0" encoding="utf-8"?>
<!-- Generator: Adobe Illustrator 18.1.1, SVG Export Plug-In . SVG Version: 6.00 Build 0)  -->
<svg version="1.1" id="Layer_1" xmlns="http://www.w3.org/2000/svg" xmlns:xlink="http://www.w3.org/1999/xlink" x="0px" y="0px"
	 viewBox="0 0 24 24" enable-background="new 0 0 24 24" xml:space="preserve">
<g>
	<defs>
		<rect id="SVGID_1_" x="-371" width="395" height="24"/>
	</defs>
	<clipPath id="SVGID_2_">
		<use xlink:href="#SVGID_1_"  overflow="visible"/>
	</clipPath>
	<path clip-path="url(#SVGID_2_)" fill="none" stroke="#FFFFFF" d="M-359,23.5c6.3,0,11.5-5.2,11.5-11.5S-352.7,0.5-359,0.5
		s-11.5,5.2-11.5,11.5S-365.3,23.5-359,23.5z"/>
	<path clip-path="url(#SVGID_2_)" fill="#FFFFFF" d="M-363,13.1c0-2.8,3.4-6.2,3.5-6.3c0.1-0.1,0.3-0.2,0.5-0.2
		c0.2,0,0.3,0.1,0.5,0.2c0.1,0.1,3.5,3.5,3.5,6.3c0,2.2-1.8,3.9-4,3.9C-361.2,17-363,15.2-363,13.1"/>
	<path clip-path="url(#SVGID_2_)" fill="#FFFFFF" d="M-360,14c0.6,0,1-0.7,1-1.5s-0.4-1.5-1-1.5s-1,0.7-1,1.5S-360.6,14-360,14"/>
	<path clip-path="url(#SVGID_2_)" fill="none" stroke="#FFFFFF" d="M-242,23.5c6.3,0,11.5-5.2,11.5-11.5S-235.7,0.5-242,0.5
		c-6.3,0-11.5,5.2-11.5,11.5S-248.3,23.5-242,23.5z"/>
</g>
<rect x="-244.1" y="6.9" transform="matrix(0.7071 0.7071 -0.7071 0.7071 -64.5161 173.7559)" fill="#FFFFFF" width="4.2" height="4.2"/>
<rect x="-248.1" y="10.9" transform="matrix(0.7071 0.7071 -0.7071 0.7071 -62.8593 177.7559)" fill="#FFFFFF" width="4.2" height="4.2"/>
<rect x="-240.1" y="10.9" transform="matrix(0.7071 0.7071 -0.7071 0.7071 -60.5161 172.0991)" fill="#FFFFFF" width="4.2" height="4.2"/>
<g>
	<defs>
		<rect id="SVGID_3_" x="-371" width="395" height="24"/>
	</defs>
	<clipPath id="SVGID_4_">
		<use xlink:href="#SVGID_3_"  overflow="visible"/>
	</clipPath>
	<path clip-path="url(#SVGID_4_)" fill="none" stroke="#FFFFFF" d="M-128,23.5c6.3,0,11.5-5.2,11.5-11.5S-121.7,0.5-128,0.5
		c-6.3,0-11.5,5.2-11.5,11.5S-134.3,23.5-128,23.5z"/>
	<path clip-path="url(#SVGID_4_)" fill="#FFFFFF" d="M-131.4,16.8c-1.1-0.8-1.6-1.8-1.6-2.9c0-3.3,3.3-7.4,9.6-6.2
		c-3.9,1.5-0.6,5.7-2.3,8c-0.9,1.2-2.2,1.7-3.5,1.7c-0.2,0.8,0.7-5.7,0.6-4.7"/>
	<path clip-path="url(#SVGID_4_)" fill="none" stroke="#FFFFFF" d="M12,23.5c6.3,0,11.5-5.2,11.5-11.5S18.3,0.5,12,0.5
		C5.7,0.5,0.5,5.7,0.5,12S5.7,23.5,12,23.5z"/>
	<path clip-path="url(#SVGID_4_)" fill="#FFFFFF" d="M8.7,7.9C7.8,7.9,7,8.7,7,9.7s0.8,1.7,1.7,1.7c1,0,1.7-0.8,1.7-1.7
		S9.7,7.9,8.7,7.9"/>
	<path clip-path="url(#SVGID_4_)" fill="#FFFFFF" d="M15.3,7.9c-1,0-1.7,0.8-1.7,1.7s0.8,1.7,1.7,1.7c1,0,1.7-0.8,1.7-1.7
		S16.2,7.9,15.3,7.9"/>
	<path clip-path="url(#SVGID_4_)" fill="#FFFFFF" d="M18,13.9c-0.4,1.4-2.8,4.2-6,4.2c-3.2,0-5.6-2.7-6-4.2H18z"/>
</g>
</svg>
