<?xml version="1.0" encoding="utf-8"?>
<!-- Generator: Adobe Illustrator 17.0.0, SVG Export Plug-In . SVG Version: 6.00 Build 0)  -->
<!DOCTYPE svg PUBLIC "-//W3C//DTD SVG 1.1//EN" "http://www.w3.org/Graphics/SVG/1.1/DTD/svg11.dtd">
<svg version="1.1" id="Слой_1" xmlns="http://www.w3.org/2000/svg" xmlns:xlink="http://www.w3.org/1999/xlink" x="0px" y="0px"
	 width="30px" height="30px" viewBox="0 0 30 30" enable-background="new 0 0 30 30" xml:space="preserve">
<g>
	<defs>
		<rect id="SVGID_1_" width="30" height="30"/>
	</defs>
	<clipPath id="SVGID_2_">
		<use xlink:href="#SVGID_1_"  overflow="visible"/>
	</clipPath>
	<path clip-path="url(#SVGID_2_)" fill="none" stroke="#9BA08E" stroke-width="2" stroke-miterlimit="10" d="M15,29
		c7.72,0,14-6.28,14-14S22.72,1,15,1S1,7.28,1,15S7.28,29,15,29z"/>
	<path clip-path="url(#SVGID_2_)" fill="none" stroke="#9BA08E" stroke-width="2" stroke-miterlimit="10" d="M20,17.5
		c1.654,0,3-1.346,3-3s-1.346-3-3-3c-1.654,0-3,1.346-3,3S18.346,17.5,20,17.5z"/>
</g>
<line fill="none" stroke="#9BA08E" stroke-width="2" stroke-miterlimit="10" x1="17" y1="8.5" x2="17" y2="14.5"/>
<g>
	<defs>
		<rect id="SVGID_3_" width="30" height="30"/>
	</defs>
	<clipPath id="SVGID_4_">
		<use xlink:href="#SVGID_3_"  overflow="visible"/>
	</clipPath>
	<path clip-path="url(#SVGID_4_)" fill="none" stroke="#9BA08E" stroke-width="2" stroke-miterlimit="10" d="M10,11.5
		c-1.654,0-3,1.346-3,3s1.346,3,3,3s3-1.346,3-3S11.654,11.5,10,11.5z"/>
</g>
<line fill="none" stroke="#9BA08E" stroke-width="2" stroke-miterlimit="10" x1="13" y1="20.5" x2="13" y2="14.5"/>
</svg>
