<?xml version="1.0" encoding="utf-8"?>
<!-- Generator: Adobe Illustrator 19.1.0, SVG Export Plug-In . SVG Version: 6.00 Build 0)  -->
<svg version="1.1" id="Layer_1" xmlns="http://www.w3.org/2000/svg" xmlns:xlink="http://www.w3.org/1999/xlink" x="0px" y="0px"
	 viewBox="0 0 129 80" style="enable-background:new 0 0 129 80;" xml:space="preserve">
<style type="text/css">
	.st0{clip-path:url(#SVGID_2_);fill:#F7F6F4;}
	.st1{fill:#F7F6F4;}
	.st2{clip-path:url(#SVGID_4_);fill:#F7F6F4;}
</style>
<g>
	<defs>
		<rect id="SVGID_1_" width="129" height="80"/>
	</defs>
	<clipPath id="SVGID_2_">
		<use xlink:href="#SVGID_1_"  style="overflow:visible;"/>
	</clipPath>
	<path class="st0" d="M31,64c17.1,0,31-14.3,31-32S48.1,0,31,0S0,14.3,0,32S13.9,64,31,64"/>
</g>
<polygon class="st1" points="31,48 15.5,80 34.9,80 58.2,48 "/>
<g>
	<defs>
		<rect id="SVGID_3_" width="129" height="80"/>
	</defs>
	<clipPath id="SVGID_4_">
		<use xlink:href="#SVGID_3_"  style="overflow:visible;"/>
	</clipPath>
	<path class="st2" d="M98,64c17.1,0,31-14.3,31-32S115.1,0,98,0S67,14.3,67,32S80.9,64,98,64"/>
</g>
<polygon class="st1" points="98,48 82.5,80 101.9,80 125.1,48 "/>
</svg>
