<?xml version="1.0" encoding="utf-8"?>
<!-- Generator: Adobe Illustrator 18.1.1, SVG Export Plug-In . SVG Version: 6.00 Build 0)  -->
<svg version="1.1" id="Layer_1" xmlns="http://www.w3.org/2000/svg" xmlns:xlink="http://www.w3.org/1999/xlink" x="0px" y="0px"
	 viewBox="0 0 23 22" enable-background="new 0 0 23 22" xml:space="preserve">
<g>
	<defs>
		<rect id="SVGID_1_" y="0" width="23" height="22"/>
	</defs>
	<clipPath id="SVGID_2_">
		<use xlink:href="#SVGID_1_"  overflow="visible"/>
	</clipPath>
	<path clip-path="url(#SVGID_2_)" fill="none" stroke="#009036" stroke-width="2" stroke-miterlimit="10" d="M8,4c-3.9,0-7,3.1-7,7
		c0,3.9,3.1,7,7,7"/>
	<path clip-path="url(#SVGID_2_)" fill="none" stroke="#009036" stroke-width="2" stroke-miterlimit="10" d="M7.3,14.7
		c1.1,1.1,2.2,2.2,3.3,3.3c-1.1,1.1-2.2,2.2-3.3,3.3"/>
	<path clip-path="url(#SVGID_2_)" fill="none" stroke="#009036" stroke-width="2" stroke-miterlimit="10" d="M15,18c3.9,0,7-3.1,7-7
		c0-3.9-3.1-7-7-7"/>
	<path clip-path="url(#SVGID_2_)" fill="none" stroke="#009036" stroke-width="2" stroke-miterlimit="10" d="M15.7,7.3
		c-1.1-1.1-2.2-2.2-3.3-3.3c1.1-1.1,2.2-2.2,3.3-3.3"/>
</g>
<line fill="none" stroke="#009036" stroke-width="2" stroke-miterlimit="10" x1="13" y1="4" x2="15" y2="4"/>
<line fill="none" stroke="#009036" stroke-width="2" stroke-miterlimit="10" x1="8" y1="18" x2="10" y2="18"/>
</svg>
