<?xml version="1.0" encoding="utf-8"?>
<!-- Generator: Adobe Illustrator 17.0.0, SVG Export Plug-In . SVG Version: 6.00 Build 0)  -->
<!DOCTYPE svg PUBLIC "-//W3C//DTD SVG 1.1//EN" "http://www.w3.org/Graphics/SVG/1.1/DTD/svg11.dtd">
<svg version="1.1" id="Слой_1" xmlns="http://www.w3.org/2000/svg" xmlns:xlink="http://www.w3.org/1999/xlink" x="0px" y="0px"
	 width="15px" height="18px" viewBox="0 0 15 18" enable-background="new 0 0 15 18" xml:space="preserve">
<path fill="#F6F6F3" d="M8,3.42c0.943,0,1.71,0.767,1.71,1.71c0,0.942-0.767,1.709-1.71,1.709c-0.942,0-1.71-0.767-1.71-1.709
	C6.29,4.187,7.058,3.42,8,3.42 M8,9.258c2.278,0,4.129-1.852,4.129-4.128C12.129,2.852,10.278,1,8,1C5.723,1,3.871,2.852,3.871,5.13
	C3.871,7.406,5.723,9.258,8,9.258"/>
<path fill="#F6F6F3" d="M9.671,12.626c0.841-0.192,1.651-0.524,2.398-0.993c0.565-0.356,0.735-1.103,0.379-1.669
	c-0.356-0.566-1.102-0.736-1.668-0.38c-1.691,1.064-3.869,1.063-5.56,0c-0.566-0.356-1.312-0.186-1.667,0.38
	c-0.357,0.566-0.187,1.313,0.378,1.669c0.747,0.468,1.558,0.801,2.398,0.993l-2.308,2.309c-0.472,0.472-0.472,1.238,0,1.71
	c0.237,0.236,0.546,0.354,0.855,0.354c0.31,0,0.62-0.118,0.856-0.354L8,14.377l2.269,2.268c0.472,0.473,1.238,0.473,1.711,0
	c0.472-0.472,0.472-1.238,0-1.71L9.671,12.626z"/>
</svg>
