<?xml version="1.0" encoding="utf-8"?>
<!-- Generator: Adobe Illustrator 17.0.0, SVG Export Plug-In . SVG Version: 6.00 Build 0)  -->
<!DOCTYPE svg PUBLIC "-//W3C//DTD SVG 1.1//EN" "http://www.w3.org/Graphics/SVG/1.1/DTD/svg11.dtd">
<svg version="1.1" id="Слой_1" xmlns="http://www.w3.org/2000/svg" xmlns:xlink="http://www.w3.org/1999/xlink" x="0px" y="0px"
	 width="15px" height="15px" viewBox="0 0 15 15" enable-background="new 0 0 15 15" xml:space="preserve">
<path fill="#F6F6F3" d="M9.607,9.187c0,0.28-0.06,0.53-0.179,0.75c-0.12,0.22-0.309,0.387-0.569,0.501
	c-0.295,0.13-0.585,0.199-0.87,0.21c-0.285,0.01-0.799,0.015-1.541,0.015H6.295V7.765h0.526c0.509,0,0.915,0.004,1.218,0.012
	c0.302,0.008,0.54,0.045,0.713,0.113c0.285,0.103,0.499,0.256,0.641,0.458C9.536,8.55,9.607,8.83,9.607,9.187 M8.89,4.487
	c0,0.254-0.044,0.477-0.13,0.668C8.673,5.347,8.516,5.497,8.287,5.606C8.078,5.704,7.876,5.758,7.68,5.769
	c-0.196,0.01-0.538,0.015-1.026,0.015H6.295V3.337h0.198c0.509,0,0.892,0.004,1.149,0.012C7.899,3.357,8.121,3.402,8.31,3.485
	c0.198,0.088,0.344,0.231,0.438,0.427C8.842,4.109,8.89,4.3,8.89,4.487 M10.225,6.445V6.383c0.488-0.208,0.871-0.531,1.149-0.972
	c0.277-0.44,0.416-0.942,0.416-1.507c0-0.486-0.101-0.917-0.302-1.289c-0.201-0.373-0.505-0.671-0.912-0.894
	C10.2,1.514,9.796,1.378,9.367,1.313C8.937,1.249,8.304,1.216,7.47,1.216H3.456v11.568h4.548c0.789,0,1.439-0.072,1.95-0.217
	c0.511-0.145,0.981-0.389,1.408-0.731c0.361-0.285,0.649-0.644,0.862-1.079c0.214-0.436,0.321-0.94,0.321-1.516
	c0-0.787-0.211-1.412-0.633-1.876C11.489,6.902,10.927,6.595,10.225,6.445"/>
</svg>
