<?xml version="1.0" encoding="utf-8"?>
<!-- Generator: Adobe Illustrator 18.1.1, SVG Export Plug-In . SVG Version: 6.00 Build 0)  -->
<svg version="1.1" id="Layer_1" xmlns="http://www.w3.org/2000/svg" xmlns:xlink="http://www.w3.org/1999/xlink" x="0px" y="0px"
	 viewBox="0 0 2 12" enable-background="new 0 0 2 12" xml:space="preserve">
<g>
	<defs>
		<rect id="SVGID_1_" x="-124" y="-61" width="135" height="30"/>
	</defs>
	<clipPath id="SVGID_2_">
		<use xlink:href="#SVGID_1_"  overflow="visible"/>
	</clipPath>
	<path clip-path="url(#SVGID_2_)" fill="#B3B4A0" d="M-109-31c8.3,0,15-6.7,15-15s-6.7-15-15-15s-15,6.7-15,15S-117.3-31-109-31"/>
	<path clip-path="url(#SVGID_2_)" fill="#B3B4A0" d="M-74-31c8.3,0,15-6.7,15-15s-6.7-15-15-15s-15,6.7-15,15S-82.3-31-74-31"/>
	<path clip-path="url(#SVGID_2_)" fill="#B3B4A0" d="M-39-31c8.3,0,15-6.7,15-15s-6.7-15-15-15s-15,6.7-15,15S-47.3-31-39-31"/>
	<path clip-path="url(#SVGID_2_)" fill="#FFFFFF" d="M-39-51.6c0.9,0,1.7,0.8,1.7,1.7c0,0.9-0.8,1.7-1.7,1.7c-0.9,0-1.7-0.8-1.7-1.7
		C-40.7-50.8-39.9-51.6-39-51.6 M-39-45.7c2.3,0,4.1-1.9,4.1-4.1c0-2.3-1.9-4.1-4.1-4.1c-2.3,0-4.1,1.9-4.1,4.1
		C-43.1-47.6-41.3-45.7-39-45.7"/>
	<path clip-path="url(#SVGID_2_)" fill="#FFFFFF" d="M-37.3-42.4c0.8-0.2,1.7-0.5,2.4-1c0.6-0.4,0.7-1.1,0.4-1.7
		c-0.4-0.6-1.1-0.7-1.7-0.4c-1.7,1.1-3.9,1.1-5.6,0c-0.6-0.4-1.3-0.2-1.7,0.4c-0.4,0.6-0.2,1.3,0.4,1.7c0.7,0.5,1.6,0.8,2.4,1
		l-2.3,2.3c-0.5,0.5-0.5,1.2,0,1.7c0.2,0.2,0.5,0.4,0.9,0.4c0.3,0,0.6-0.1,0.9-0.4l2.3-2.3l2.3,2.3c0.5,0.5,1.2,0.5,1.7,0
		c0.5-0.5,0.5-1.2,0-1.7L-37.3-42.4z"/>
	<path clip-path="url(#SVGID_2_)" fill="#FFFFFF" d="M-107.4-43.8c0,0.3-0.1,0.5-0.2,0.8c-0.1,0.2-0.3,0.4-0.6,0.5
		c-0.3,0.1-0.6,0.2-0.9,0.2c-0.3,0-0.8,0-1.5,0h-0.2v-2.9h0.5c0.5,0,0.9,0,1.2,0c0.3,0,0.5,0,0.7,0.1c0.3,0.1,0.5,0.3,0.6,0.5
		C-107.5-44.5-107.4-44.2-107.4-43.8 M-108.1-48.5c0,0.3,0,0.5-0.1,0.7c-0.1,0.2-0.2,0.3-0.5,0.5c-0.2,0.1-0.4,0.2-0.6,0.2
		c-0.2,0-0.5,0-1,0h-0.4v-2.4h0.2c0.5,0,0.9,0,1.1,0c0.3,0,0.5,0.1,0.7,0.1c0.2,0.1,0.3,0.2,0.4,0.4
		C-108.2-48.9-108.1-48.7-108.1-48.5 M-106.8-46.6L-106.8-46.6c0.5-0.3,0.9-0.6,1.1-1c0.3-0.4,0.4-0.9,0.4-1.5
		c0-0.5-0.1-0.9-0.3-1.3c-0.2-0.4-0.5-0.7-0.9-0.9c-0.4-0.2-0.8-0.3-1.2-0.4c-0.4-0.1-1.1-0.1-1.9-0.1h-4v11.6h4.5
		c0.8,0,1.4-0.1,1.9-0.2c0.5-0.1,1-0.4,1.4-0.7c0.4-0.3,0.6-0.6,0.9-1.1c0.2-0.4,0.3-0.9,0.3-1.5c0-0.8-0.2-1.4-0.6-1.9
		C-105.5-46.1-106.1-46.4-106.8-46.6"/>
	<path clip-path="url(#SVGID_2_)" fill="#FFFFFF" d="M-70.9-52.2l-0.3,2c0,0-0.5-0.2-1.1-0.2c-0.5,0-1,0.2-1,0.7v0.2v0.7v0.6h2.1
		l-0.1,1.9h-2v6.8h-2.5v-6.8h-1.3v-1.9h1.3v-0.6v-0.6v-0.1c0-0.6,0-1.4,0.4-2c0.4-0.6,1-1,2-1C-71.6-52.5-70.9-52.2-70.9-52.2"/>
	<path clip-path="url(#SVGID_2_)" fill="#B3B4A0" d="M-4-31c8.3,0,15-6.7,15-15S4.3-61-4-61s-15,6.7-15,15S-12.3-31-4-31"/>
</g>
<rect x="0" y="0" fill="#FFFFFF" width="2" height="12"/>
<rect x="-5" y="5" fill="#FFFFFF" width="12" height="2"/>
</svg>
