<?xml version="1.0" encoding="utf-8"?>
<!-- Generator: Adobe Illustrator 18.1.1, SVG Export Plug-In . SVG Version: 6.00 Build 0)  -->
<svg version="1.1" id="Layer_1" xmlns="http://www.w3.org/2000/svg" xmlns:xlink="http://www.w3.org/1999/xlink" x="0px" y="0px"
	 viewBox="0 0 22 22" enable-background="new 0 0 22 22" xml:space="preserve">
<g>
	<defs>
		<rect id="SVGID_1_" width="22" height="22"/>
	</defs>
	<clipPath id="SVGID_2_">
		<use xlink:href="#SVGID_1_"  overflow="visible"/>
	</clipPath>
	<path clip-path="url(#SVGID_2_)" fill="#FFFFFF" d="M11,22c6.1,0,11-4.9,11-11S17.1,0,11,0S0,4.9,0,11S4.9,22,11,22"/>
	<path clip-path="url(#SVGID_2_)" fill="#816BAD" d="M14.4,12.7c-1.7-0.3-2.3-0.6-1.5-1.9C15.2,7,13.5,5,11,5
		c-2.5,0-4.2,2.1-1.9,5.8c0.8,1.2,0.1,1.5-1.5,1.9C5.9,13,6,14.6,6,16h10C16,14.6,16.1,13,14.4,12.7"/>
</g>
</svg>
