<?xml version="1.0" encoding="utf-8"?>
<!-- Generator: Adobe Illustrator 17.0.0, SVG Export Plug-In . SVG Version: 6.00 Build 0)  -->
<!DOCTYPE svg PUBLIC "-//W3C//DTD SVG 1.1//EN" "http://www.w3.org/Graphics/SVG/1.1/DTD/svg11.dtd">
<svg version="1.1" id="Слой_1" xmlns="http://www.w3.org/2000/svg" xmlns:xlink="http://www.w3.org/1999/xlink" x="0px" y="0px"
	 width="20px" height="18px" viewBox="0 0 20 18" enable-background="new 0 0 20 18" xml:space="preserve">
<g>
	<defs>
		<rect id="SVGID_1_" width="20" height="18"/>
	</defs>
	<clipPath id="SVGID_2_">
		<use xlink:href="#SVGID_1_"  overflow="visible"/>
	</clipPath>
	
		<path clip-path="url(#SVGID_2_)" fill="none" stroke="#009036" stroke-width="2" stroke-linecap="round" stroke-linejoin="round" stroke-miterlimit="10" d="
		M10,17c0-0.879-0.471-1.543-1.293-1.822C8.182,15,7.598,15,7.034,15H1V1h8c0.495,0,1,0.42,1,0.832V3"/>
	
		<path clip-path="url(#SVGID_2_)" fill="none" stroke="#009036" stroke-width="2" stroke-linecap="round" stroke-linejoin="round" stroke-miterlimit="10" d="
		M10,17c0-0.879,0.471-1.543,1.293-1.822C11.818,15,12.402,15,12.966,15H19V1h-8c-0.495,0-1,0.42-1,0.832V3"/>
</g>
<line fill="none" stroke="#009036" stroke-width="2" stroke-miterlimit="10" x1="4" y1="8" x2="16" y2="8"/>
<line fill="none" stroke="#009036" stroke-width="2" stroke-miterlimit="10" x1="4" y1="11" x2="16" y2="11"/>
</svg>
